<?xml version="1.0" encoding="UTF-8"?>
<svg version="1.1" xmlns="http://www.w3.org/2000/svg" width="1500" height="604">
<path d="M0 0 C2.62993591 1.97846148 4.66218832 3.58054944 5.45002306 6.8909514 C5.61544504 9.22653453 5.61639564 11.51379333 5.56521606 13.85479736 C5.56610774 15.19312736 5.56610774 15.19312736 5.56701744 16.55849433 C5.56320547 19.54903109 5.5238254 22.53805052 5.48486328 25.52832031 C5.47530738 27.67205418 5.46810728 29.81579966 5.46308899 31.95954895 C5.44815633 36.57704681 5.41835267 41.19412864 5.37762833 45.81147003 C5.31515819 53.1150404 5.29699543 60.41830047 5.28707886 67.72210693 C5.2523717 88.49133869 5.16300014 109.26005892 5.01757812 130.02880859 C4.93765371 141.49873508 4.89719527 152.96812645 4.89934528 164.43833804 C4.89838856 171.69667949 4.84844577 178.95250753 4.76222539 186.21031141 C4.72008524 190.73099304 4.72401753 195.25077125 4.74088097 199.77158165 C4.7394926 201.86423236 4.71929169 203.95697018 4.67865562 206.04922676 C4.13423084 217.25260794 4.13423084 217.25260794 8.38604355 227.17255402 C11.15530652 229.46618532 13.87592728 231.23519853 17 233 C18.42199749 234.12046941 19.82603743 235.26489855 21.1953125 236.44921875 C21.83919922 236.97966797 22.48308594 237.51011719 23.14648438 238.05664062 C24.12584961 238.86391602 24.12584961 238.86391602 25.125 239.6875 C26.59635015 240.89974446 28.06770443 242.1119839 29.5390625 243.32421875 C30.64749512 244.2376001 30.64749512 244.2376001 31.77832031 245.16943359 C35.3516205 248.11367588 38.92584428 251.0567964 42.5 254 C43.91667137 255.16666096 45.33333803 256.33332763 46.75 257.5 C47.801875 258.36625 47.801875 258.36625 48.875 259.25 C55.25 264.5 55.25 264.5 57.37646484 266.2512207 C58.78822989 267.4138412 60.20001364 268.57643898 61.61181641 269.73901367 C65.22863422 272.71739759 68.84509182 275.69621718 72.4609375 278.67578125 C79.30969686 284.31877312 86.16181542 289.95726066 93.03515625 295.5703125 C95.46359451 297.56041606 97.88731747 299.55589121 100.30859375 301.5546875 C101.45328125 302.49924805 101.45328125 302.49924805 102.62109375 303.46289062 C104.13604694 304.71342956 105.65039514 305.96470186 107.1640625 307.21679688 C108.21013672 308.08014648 108.21013672 308.08014648 109.27734375 308.9609375 C109.89859131 309.47446777 110.51983887 309.98799805 111.15991211 310.51708984 C113.07330485 312.05907571 115.03101752 313.5299773 117 315 C117.012156 306.40889261 117.02284841 297.81778374 117.03265357 289.22667336 C117.03432023 287.77503591 117.03601406 286.32339848 117.03773522 284.87176108 C117.05921737 266.71207162 117.06654124 248.55250938 117.03955078 230.39282227 C117.03725998 228.78452461 117.03497879 227.17622695 117.03270721 225.56792927 C117.01901743 215.97319621 117.01901743 215.97319621 117.00370026 206.37846565 C116.97569115 189.22525546 116.99091106 172.07650719 117.20292664 154.92422485 C117.28029034 148.62828501 117.31559318 142.33244819 117.33261967 136.03607368 C117.34584654 132.13014406 117.38379516 128.22811494 117.4836731 124.32336426 C118.72019593 108.52612467 118.72019593 108.52612467 112.79003906 94.74267578 C109.48012087 91.8067366 106.0245384 89.8075543 102 88 C103.21346887 84.35959339 104.58466761 83.90381425 107.88082886 82.21520996 C108.57846344 81.87066772 109.27609802 81.52612549 109.99487305 81.17114258 C110.72665268 80.80006882 111.45843231 80.42899506 112.21238708 80.04667664 C114.64048421 78.81904236 117.07568708 77.60633559 119.51171875 76.39453125 C121.20011968 75.54737781 122.88825204 74.69968891 124.5761261 73.85148621 C128.11964942 72.07377454 131.66680414 70.30357642 135.21655273 68.53833008 C139.76255613 66.27674948 144.2983553 63.995511 148.83151531 61.70831776 C152.31799925 59.9522768 155.81005253 58.20755344 159.30384254 56.46610069 C160.97817669 55.62967677 162.65068211 54.78958167 164.32129478 53.94574928 C166.66131938 52.76574073 169.0085028 51.60136815 171.3581543 50.44067383 C172.04566772 50.0900589 172.73318115 49.73944397 173.44152832 49.37820435 C177.45196016 47.42099912 180.54649915 46.26943572 185 47 C189.77166185 50.01983058 189.77166185 50.01983058 190.61803246 53.65297985 C190.61472231 54.67203065 190.61141216 55.69108145 190.60800171 56.74101257 C190.62048321 58.50597958 190.62048321 58.50597958 190.63321686 60.30660248 C190.61680901 61.59849739 190.60040115 62.8903923 190.58349609 64.22143555 C190.58370183 65.60434919 190.58609868 66.98726396 190.59050751 68.37017059 C190.596196 72.1603221 190.5706291 75.94971429 190.53980017 79.73972106 C190.51212876 83.79335678 190.51294889 87.84699582 190.51028442 91.90071106 C190.50056154 99.76906832 190.46413352 107.63708459 190.41864121 115.5053075 C190.3672842 124.57880616 190.3439775 133.65231249 190.32145929 142.72592044 C190.26536459 164.62376276 190.1505337 186.52116242 190.01586723 208.41864681 C190.00028572 210.9535178 189.98487622 213.48838979 189.96949768 216.02326202 C189.73400078 254.68300855 189.417296 293.34175253 189 332 C189.60054199 332.28214355 190.20108398 332.56428711 190.81982422 332.85498047 C193.95246116 334.50022876 196.47166197 336.81513614 199.125 339.125 C200.29076648 340.12604926 201.45744121 341.12604175 202.625 342.125 C203.19863281 342.61613281 203.77226562 343.10726563 204.36328125 343.61328125 C207.36801391 346.15905713 210.45793073 348.59587074 213.54296875 351.04296875 C218.06784881 354.64704651 222.52793103 358.3307709 227 362 C228.83310162 363.50028317 230.66643427 365.00028408 232.5 366.5 C233.41523438 367.24894531 234.33046875 367.99789063 235.2734375 368.76953125 C237.02817784 370.20499935 238.78335155 371.63993796 240.5390625 373.07421875 C246.9483885 378.31205163 253.33943196 383.57177219 259.72753906 388.83544922 C265.47455062 393.56986763 271.23355779 398.28926029 277 403 C278.83345036 404.49985696 280.66678171 405.9998594 282.5 407.5 C283.39847656 408.23476563 284.29695313 408.96953125 285.22265625 409.7265625 C287.1485149 411.30300376 289.0728929 412.88125492 290.99609375 414.4609375 C291.96675781 415.25757813 292.93742187 416.05421875 293.9375 416.875 C294.81277344 417.59429687 295.68804687 418.31359375 296.58984375 419.0546875 C298.9213342 421.0067643 298.9213342 421.0067643 301.30078125 422.484375 C303 424 303 424 303.453125 426.0859375 C303.35257812 427.21902344 303.35257812 427.21902344 303.25 428.375 C303.21390625 429.12523437 303.1778125 429.87546875 303.140625 430.6484375 C299.44340088 438.27079682 285.05831209 442.63964008 277.59741211 446.38623047 C275.93259084 447.2257341 274.2679168 448.06552973 272.6033783 448.90559387 C267.16429363 451.64862478 261.72099222 454.38322782 256.27734375 457.1171875 C254.39908335 458.06102494 252.52083903 459.00489436 250.64261055 459.94879532 C242.83337004 463.87263368 235.02308837 467.79438555 227.20989132 471.7103405 C216.02690239 477.31526297 204.8502772 482.93245263 193.68221468 488.56706131 C185.8174012 492.53386568 177.94575699 496.48688594 170.06885916 500.42963898 C165.3676875 502.7832279 160.66970713 505.14272432 155.97889519 507.51690292 C151.57158544 509.74718747 147.15607106 511.9602873 142.73365211 514.16045189 C141.11279686 514.97052079 139.49500788 515.78675875 137.88059235 516.60958672 C135.67561944 517.7322285 133.46065927 518.83208226 131.24180603 519.92697144 C130.28838449 520.42232071 130.28838449 520.42232071 129.3157019 520.92767704 C124.83592574 523.09620524 121.80433572 523.15545567 117 522 C114.94287109 520.85180664 114.94287109 520.85180664 113.2734375 519.41015625 C112.64115234 518.87841797 112.00886719 518.34667969 111.35742188 517.79882812 C110.70322266 517.22583984 110.04902344 516.65285156 109.375 516.0625 C107.9569571 514.86443051 106.53767121 513.66783079 105.1171875 512.47265625 C104.41948242 511.87984863 103.72177734 511.28704102 103.00292969 510.67626953 C100.23309354 508.35816922 97.38017068 506.17987981 94.5 504 C89.58945642 500.25631826 84.77979681 496.40899051 80 492.5 C75.19823246 488.57387237 70.37009043 484.69817104 65.4375 480.9375 C60.11492474 476.87657221 54.87524599 472.72364171 49.65600586 468.53100586 C45.45792147 465.16057615 41.23879339 461.81906085 37 458.5 C31.51397601 454.20298869 26.06282038 449.86441074 20.63183594 445.49804688 C17.45762769 442.95004298 14.26893334 440.42481453 11.046875 437.9375 C10.40943359 437.44378906 9.77199219 436.95007813 9.11523438 436.44140625 C7.90642224 435.50726661 6.69436718 434.57730248 5.47851562 433.65234375 C2.48215849 431.3332697 -0.077698 429.27758136 -2 426 C-2.26464844 422.94506836 -2.26464844 422.94506836 -2.109375 419.33984375 C-2.08516983 418.68577042 -2.06096466 418.03169708 -2.036026 417.35780334 C-1.98192107 415.94992582 -1.92073383 414.54230609 -1.85317993 413.13500977 C-1.7491357 410.91909225 -1.66985782 408.70345678 -1.59643555 406.48632812 C-1.34699004 399.3479252 -0.96696619 392.24505934 -0.34765625 385.12890625 C-0.25838867 383.92177979 -0.16912109 382.71465332 -0.07714844 381.47094727 C0.09476405 379.21626109 0.30925046 376.96427344 0.57324219 374.71850586 C0.90889116 369.99294133 0.9630893 367.21194929 -2.05688477 363.41162109 C-4.60410326 361.09226046 -7.21505654 359.02492874 -10 357 C-10.96550781 356.18789063 -11.93101562 355.37578125 -12.92578125 354.5390625 C-13.71339844 353.90742188 -14.50101562 353.27578125 -15.3125 352.625 C-19.4197353 349.29981938 -23.47483827 345.92337367 -27.5 342.5 C-31.46891888 339.12703063 -35.46017431 335.78823022 -39.5 332.5 C-43.53983543 329.21176186 -47.53080427 325.87265239 -51.5 322.5 C-56.2691121 318.44987401 -61.07912432 314.45647887 -65.9296875 310.50390625 C-75.08319559 303.03902243 -84.21140459 295.54131399 -93.25 287.9375 C-94.24515625 287.10089844 -95.2403125 286.26429688 -96.265625 285.40234375 C-97.16796875 284.60957031 -98.0703125 283.81679688 -99 283 C-99.86844008 282.31503983 -100.73688017 281.63007967 -101.63163662 280.92436314 C-104.91684781 276.86791193 -104.69756094 273.88338771 -104.62818909 268.80784607 C-104.63528347 267.87942982 -104.64237786 266.95101358 -104.64968723 265.9944635 C-104.66729673 262.88187488 -104.64914702 259.77053008 -104.63110352 256.65795898 C-104.63624115 254.42728099 -104.64352124 252.19660705 -104.65278625 249.96594238 C-104.671327 243.90609339 -104.65834489 237.84668342 -104.63869596 231.7868526 C-104.62233245 225.45059351 -104.63111906 219.11436273 -104.63621521 212.77809143 C-104.6407384 202.13786801 -104.62495569 191.49783835 -104.59692383 180.85766602 C-104.56807967 169.90902408 -104.56100617 158.96063241 -104.57641602 148.01196289 C-104.59496063 134.8179732 -104.59324539 121.6241321 -104.57420158 108.43013191 C-104.56732023 103.38991266 -104.56837466 98.34978638 -104.57574654 93.30956841 C-104.58339386 87.37760168 -104.57133372 81.44599651 -104.54389763 75.51409149 C-104.53699675 73.3339883 -104.53693394 71.15385145 -104.54411316 68.97374916 C-104.55276815 66.00381605 -104.5369186 63.03500898 -104.5146637 60.06517029 C-104.52290446 59.19698699 -104.53114523 58.32880369 -104.53963572 57.43431181 C-104.45896492 51.62471531 -104.45896492 51.62471531 -102.21841145 48.57500935 C-100.17608687 47.1250167 -98.22695729 45.85951625 -95.99075317 44.73468018 C-95.202995 44.33371628 -94.41523682 43.93275238 -93.60360718 43.51963806 C-92.74844513 43.09453445 -91.89328308 42.66943085 -91.01220703 42.23144531 C-89.65053406 41.54294243 -89.65053406 41.54294243 -88.26135254 40.8405304 C-85.26426427 39.32810426 -82.26139368 37.82761052 -79.2578125 36.328125 C-77.17022296 35.28044299 -75.08281292 34.23240324 -72.99557495 33.184021 C-68.62199559 30.98977242 -64.24536994 28.80174554 -59.86669922 26.61767578 C-54.25540995 23.81783003 -48.6534302 20.99989283 -43.05377388 18.17686844 C-38.7462686 16.00838757 -34.43327585 13.85100908 -30.11861801 11.69680023 C-28.05068358 10.66231951 -25.98463823 9.62405354 -23.92053604 8.58194733 C-21.03481146 7.12675391 -18.14187189 5.6870228 -15.24658203 4.25097656 C-13.96991165 3.60117577 -13.96991165 3.60117577 -12.66744995 2.93824768 C-4.67337961 -0.9881131 -4.67337961 -0.9881131 0 0 Z M-21.625 25.5 C-22.23601562 25.83386719 -22.84703125 26.16773438 -23.4765625 26.51171875 C-24.98641801 27.33742098 -26.49347848 28.16823037 -28 29 C-28.07267933 60.48899883 -27.89725463 91.97386388 -27.62768555 123.46166992 C-27.58365767 128.61757839 -27.54204329 133.77349714 -27.50268555 138.92944336 C-27.27056674 169.29545826 -26.91852103 199.64618631 -26 230 C-22.10867945 228.79312667 -18.65478842 227.40730242 -15.125 225.375 C-14.34382813 224.92898438 -13.56265625 224.48296875 -12.7578125 224.0234375 C-11.88769531 223.51683594 -11.88769531 223.51683594 -11 223 C-10.90698578 195.81695083 -11.13953452 168.63644507 -11.37231445 141.45458984 C-11.41589322 136.35401745 -11.45755007 131.25343558 -11.49731445 126.15283203 C-11.76840253 91.42938365 -12.24790148 56.716458 -13 22 C-16.25914119 22 -18.83330149 23.95502155 -21.625 25.5 Z M-49.13671875 39.00366211 C-50.01432861 39.44089096 -50.89193848 39.87811981 -51.79614258 40.32859802 C-52.75029053 40.80668411 -53.70443848 41.2847702 -54.6875 41.77734375 C-55.66033936 42.26328506 -56.63317871 42.74922638 -57.63549805 43.24989319 C-59.6972699 44.28043808 -61.75853445 45.31199844 -63.81933594 46.34448242 C-66.98484366 47.92990903 -70.15245545 49.5110707 -73.3203125 51.09179688 C-75.31783664 52.09088935 -77.31523667 53.09023 -79.3125 54.08984375 C-80.26664795 54.56590561 -81.2207959 55.04196747 -82.20385742 55.53245544 C-83.08146729 55.97283646 -83.95907715 56.41321747 -84.86328125 56.86694336 C-85.63969971 57.25555038 -86.41611816 57.64415741 -87.21606445 58.04454041 C-88.96928311 58.87278935 -88.96928311 58.87278935 -90 60 C-90.09779295 62.60501536 -90.12994636 65.18350022 -90.12025452 67.78895569 C-90.12110894 68.61468769 -90.12196337 69.44041969 -90.12284368 70.29117388 C-90.12450102 73.0796355 -90.11897299 75.86803799 -90.11352539 78.65649414 C-90.11324355 80.6467641 -90.1134012 82.63703417 -90.1139679 84.62730408 C-90.11425598 90.0485686 -90.10835746 95.4698112 -90.10139394 100.8910706 C-90.09516224 106.5498921 -90.09455675 112.20871405 -90.09336853 117.86753845 C-90.09025467 128.59146492 -90.08204054 139.31538125 -90.07201904 150.03930324 C-90.0608596 162.24465513 -90.05534788 174.45000749 -90.05032361 186.6553632 C-90.03985797 211.77024777 -90.02225748 236.88512332 -90 262 C-86.02354147 260.70406019 -82.33524927 259.28724375 -78.6015625 257.3984375 C-77.62832031 256.90859375 -76.65507813 256.41875 -75.65234375 255.9140625 C-74.65332031 255.40617188 -73.65429688 254.89828125 -72.625 254.375 C-71.60277344 253.859375 -70.58054687 253.34375 -69.52734375 252.8125 C-67.01637331 251.54528127 -64.50735439 250.27435444 -62 249 C-62 248.34 -62 247.68 -62 247 C-63.14339844 246.43152344 -64.28679687 245.86304688 -65.46484375 245.27734375 C-70.31249991 242.83447752 -74.75862683 240.47119692 -78 236 C-80.31957379 227.9628687 -79.63146173 219.25940525 -79 211 C-56.43561301 227.79142045 -56.43561301 227.79142045 -46.23046875 236.3125 C-44.20032358 238.20111555 -44.20032358 238.20111555 -42 238 C-39.81382578 223.95601647 -39.81382578 223.95601647 -43.39453125 210.765625 C-47.85870538 206.21391804 -53.52024719 203.16930038 -59 200 C-72.42811626 191.89435856 -72.42811626 191.89435856 -76 186 C-77.9399804 178.13503935 -77.08236303 169.94777705 -76 162 C-66.50104039 169.1830004 -57.09454017 176.44554135 -47.91601562 184.03588867 C-45.25355101 186.73487935 -45.25355101 186.73487935 -42 188 C-41.76644069 183.81344935 -41.62517363 179.62858126 -41.5 175.4375 C-41.43296875 174.25607422 -41.3659375 173.07464844 -41.296875 171.85742188 C-41.04075581 165.4555055 -41.04075581 165.4555055 -43.5769043 159.78710938 C-45.6239143 157.97980821 -47.71158336 156.48637282 -50 155 C-51.16096372 154.08636928 -52.31394825 153.162468 -53.45703125 152.2265625 C-54.57384644 151.35721968 -55.6923565 150.49005009 -56.8125 149.625 C-62.26932579 145.38597801 -67.61124751 141.04138709 -72.890625 136.58203125 C-74.82721354 134.8 -74.82721354 134.8 -77 135 C-76.67 126.75 -76.34 118.5 -76 110 C-72.473125 112.8771875 -72.473125 112.8771875 -68.875 115.8125 C-63.33278385 120.31694663 -57.78061343 124.80884965 -52.1875 129.25 C-51.60790527 129.71510986 -51.02831055 130.18021973 -50.43115234 130.65942383 C-47.95298472 132.61647453 -46.02329719 133.99223427 -43 135 C-41.32223781 122.27819666 -41.32223781 122.27819666 -43.95214844 110.10644531 C-46.48749132 107.06282367 -49.78717482 105.07342986 -53.18554688 103.10986328 C-56.4711208 101.10014597 -59.38534009 98.60590266 -62.375 96.1875 C-63.50631569 95.30406943 -64.63907762 94.42248705 -65.7734375 93.54296875 C-67.99984252 91.81109673 -70.15230526 90.01680922 -72.2890625 88.17578125 C-74.68061194 85.79135745 -74.68061194 85.79135745 -77 86 C-76.67 77.75 -76.34 69.5 -76 61 C-73.628125 62.93875 -71.25625 64.8775 -68.8125 66.875 C-63.49923475 71.19848046 -58.16502213 75.49190636 -52.75 79.6875 C-51.73421875 80.47511719 -50.7184375 81.26273438 -49.671875 82.07421875 C-47.46743854 83.66308889 -45.43185034 84.83298391 -43 86 C-42.88922183 69.63209915 -42.93491796 53.33759779 -44 37 C-45.85875199 37 -47.50748508 38.18988001 -49.13671875 39.00366211 Z M-12.20361328 240.48828125 C-12.9451767 240.85891693 -13.68674011 241.22955261 -14.45077515 241.61141968 C-16.90920195 242.84133151 -19.36474437 244.07689191 -21.8203125 245.3125 C-23.52121848 246.16481741 -25.22230106 247.01678249 -26.92355347 247.8684082 C-31.40682381 250.11386662 -35.88767135 252.36411905 -40.36804199 254.61535645 C-44.93792646 256.91051693 -49.51007104 259.2011655 -54.08203125 261.4921875 C-63.05691343 265.99036251 -72.02924419 270.49360202 -81 275 C-79.26923697 278.76118496 -77.33562354 280.60938691 -74.0625 283.1875 C-73.06605469 283.9815625 -72.06960937 284.775625 -71.04296875 285.59375 C-70.03878906 286.3878125 -69.03460938 287.181875 -68 288 C-66.28855185 289.39201246 -64.58019278 290.78783181 -62.875 292.1875 C-61.9675 292.93 -61.06 293.6725 -60.125 294.4375 C-52.65371411 300.55926043 -45.20604805 306.70987265 -37.75195312 312.85253906 C-27.63724034 321.18998395 -27.63724034 321.18998395 -17.5 329.5 C-12.94963645 333.21865058 -8.41088854 336.95122192 -3.875 340.6875 C-2.79593384 341.57622803 -2.79593384 341.57622803 -1.69506836 342.48291016 C2.04466916 345.56357013 5.78298575 348.6459379 9.51953125 351.73046875 C16.96900179 357.87728179 24.43248426 363.99867395 32 370 C48.19723684 362.47454639 64.15617671 354.48261707 80.11834717 346.47515869 C83.61134135 344.72345833 87.10553259 342.97414901 90.59960938 341.22460938 C97.40088151 337.81868194 104.20087123 334.41020453 111 331 C107.7471908 327.71533374 104.47507869 324.65155596 100.875 321.75 C99.905625 320.96496094 98.93625 320.17992187 97.9375 319.37109375 C96.968125 318.58863281 95.99875 317.80617188 95 317 C93.29039047 315.60573003 91.58205762 314.2098932 89.875 312.8125 C88.9675 312.07 88.06 311.3275 87.125 310.5625 C79.65371411 304.44073957 72.20604805 298.29012735 64.75195312 292.14746094 C54.63724034 283.81001605 54.63724034 283.81001605 44.5 275.5 C39.94963586 271.78134894 35.41097718 268.04867114 30.875 264.3125 C29.79810913 263.42594727 29.79810913 263.42594727 28.69946289 262.52148438 C24.93214 259.4191305 21.16840717 256.31255797 17.41015625 253.19921875 C16.66072754 252.57942139 15.91129883 251.95962402 15.13916016 251.32104492 C13.71963044 250.14691849 12.30124751 248.97140355 10.88427734 247.79418945 C7.50869516 245.00448991 4.10012838 242.26380062 0.62890625 239.59375 C-0.34260376 238.84641602 -0.34260376 238.84641602 -1.33374023 238.08398438 C-5.12216813 235.61942469 -8.63352474 238.68499095 -12.20361328 240.48828125 Z " fill="#58357D" transform="translate(162,46)"/>
<path d="M0 0 C21.92939688 20.61033542 29.05030061 50.41145953 30.59765625 79.44140625 C30.9173008 90.61412942 30.83884938 101.79415667 30.80044413 112.97022343 C30.78778023 117.28895992 30.78675412 121.60770044 30.78439331 125.92645264 C30.77822386 134.07148535 30.76187574 142.21646315 30.74169433 150.36147189 C30.71919249 159.64832923 30.70830631 168.93518946 30.69830346 178.22206736 C30.67750445 197.29521759 30.64088633 216.36829275 30.59765625 235.44140625 C10.13765625 235.44140625 -10.32234375 235.44140625 -31.40234375 235.44140625 C-33.38234375 227.19140625 -35.36234375 218.94140625 -37.40234375 210.44140625 C-39.44421875 212.09140625 -41.48609375 213.74140625 -43.58984375 215.44140625 C-67.24029474 234.15591848 -93.21002828 244.01451441 -123.6171875 241.23925781 C-138.53743742 239.31242242 -151.00565355 233.06376145 -162.40234375 223.44140625 C-163.0571875 222.9 -163.71203125 222.35859375 -164.38671875 221.80078125 C-174.0952381 212.98295175 -179.7740589 200.79594581 -183.40234375 188.44140625 C-183.63566406 187.70019531 -183.86898437 186.95898438 -184.109375 186.1953125 C-189.17303831 167.50711626 -186.80002578 145.44350266 -177.8359375 128.4765625 C-161.69263805 101.77082582 -132.11189642 89.76713771 -103.08984375 82.31640625 C-93.74714206 80.01792007 -84.32158752 78.24138744 -74.83984375 76.62890625 C-73.6283667 76.42185059 -72.41688965 76.21479492 -71.16870117 76.00146484 C-62.58112604 74.61223804 -54.08223243 73.88529458 -45.40234375 73.44140625 C-46.91646039 65.49890081 -48.35713557 58.48789791 -52.40234375 51.44140625 C-52.68980469 50.75304687 -52.97726562 50.0646875 -53.2734375 49.35546875 C-54.6885754 46.9561 -55.85990341 46.50803583 -58.40234375 45.44140625 C-59.12550781 45.03921875 -59.84867188 44.63703125 -60.59375 44.22265625 C-69.42236029 39.45200687 -78.41125791 37.72888824 -88.40234375 38.44140625 C-89.37042969 38.50972656 -90.33851563 38.57804687 -91.3359375 38.6484375 C-110.48116221 40.70051694 -129.8960363 48.7969344 -146.25390625 58.7734375 C-147.29289063 59.32386719 -148.331875 59.87429688 -149.40234375 60.44140625 C-153.33683883 59.12990789 -153.53949482 57.79292049 -155.37109375 54.140625 C-155.93755615 53.026875 -156.50401855 51.913125 -157.08764648 50.765625 C-157.69271629 49.55347062 -158.29761187 48.34122926 -158.90234375 47.12890625 C-160.14883582 44.66160943 -161.402016 42.19774367 -162.65625 39.734375 C-162.96973892 39.11670258 -163.28322784 38.49903015 -163.60621643 37.86264038 C-166.96360613 31.27839452 -170.57530921 24.83758065 -174.2890625 18.44799805 C-174.71703125 17.69301025 -175.145 16.93802246 -175.5859375 16.16015625 C-175.96290771 15.50982422 -176.33987793 14.85949219 -176.72827148 14.18945312 C-177.40234375 12.44140625 -177.40234375 12.44140625 -176.40234375 9.44140625 C-174.57080078 8.1262207 -174.57080078 8.1262207 -172.16015625 6.8046875 C-171.26852783 6.31371582 -170.37689941 5.82274414 -169.45825195 5.31689453 C-168.49105225 4.8011084 -167.52385254 4.28532227 -166.52734375 3.75390625 C-165.53371826 3.22007324 -164.54009277 2.68624023 -163.51635742 2.13623047 C-144.39967475 -7.9774652 -124.65187217 -15.06162762 -103.46484375 -19.37109375 C-102.44696777 -19.57822998 -101.4290918 -19.78536621 -100.38037109 -19.9987793 C-65.9075955 -26.64409989 -27.56414725 -23.43944032 0 0 Z M-107.3359375 141.1328125 C-112.49039383 146.89138281 -114.77724121 153.52933687 -114.60546875 161.23046875 C-113.92773327 168.60735879 -111.42804521 173.13366214 -105.828125 177.93359375 C-95.93418181 184.08345216 -83.83676485 184.06474503 -72.69921875 181.6328125 C-64.57502565 178.79719438 -57.87906648 174.03619227 -51.40234375 168.44140625 C-50.88726761 168.05008011 -50.37219147 167.65875397 -49.84150696 167.25556946 C-47.31530733 165.13044016 -45.64659672 163.48013558 -44.87678528 160.20637512 C-44.70911192 157.52825492 -44.72724465 154.91236275 -44.81640625 152.23046875 C-44.82914078 150.77826431 -44.82914078 150.77826431 -44.84213257 149.29672241 C-44.87559403 146.21879577 -44.95086049 143.14353457 -45.02734375 140.06640625 C-45.0574527 137.9739963 -45.08482687 135.88154508 -45.109375 133.7890625 C-45.17536185 128.67215745 -45.27883425 123.557233 -45.40234375 118.44140625 C-65.82501735 118.44140625 -92.54421312 127.05337019 -107.3359375 141.1328125 Z " fill="#58357D" transform="translate(912.40234375,241.55859375)"/>
<path d="M0 0 C84.48 0 168.96 0 256 0 C256 21.12 256 42.24 256 64 C226.3 64 196.6 64 166 64 C166 152.11 166 240.22 166 331 C140.92 331 115.84 331 90 331 C90 242.89 90 154.78 90 64 C60.3 64 30.6 64 0 64 C0 42.88 0 21.76 0 0 Z " fill="#58357D" transform="translate(488,146)"/>
<path d="M0 0 C1.00804687 0.36867187 2.01609375 0.73734375 3.0546875 1.1171875 C17.02978338 6.60875634 29.93178949 14.12199471 42 23 C41.46136723 26.66112443 40.65923995 28.88775351 38.33203125 31.7578125 C37.77507568 32.45688721 37.21812012 33.15596191 36.64428711 33.8762207 C36.03979736 34.61831787 35.43530762 35.36041504 34.8125 36.125 C33.53672807 37.72339996 32.26336724 39.32372678 30.9921875 40.92578125 C30.33444336 41.75416504 29.67669922 42.58254883 28.99902344 43.43603516 C25.10413235 48.43165633 21.40610198 53.57485642 17.70825195 58.71728516 C14.72042576 62.83046546 11.71972866 66.52963863 8 70 C7.09121094 69.35933594 6.18242188 68.71867187 5.24609375 68.05859375 C-12.27023082 55.91905607 -32.12337046 45.9476662 -54.0625 49.75 C-60.10147262 51.1118212 -65.89503475 52.76797122 -69.5 58.125 C-71.65741546 62.60356335 -71.77283835 67.14560912 -71 72 C-65.33949531 84.26442684 -49.26669367 88.92533369 -37.49609375 93.30322266 C-34.2864867 94.47386959 -31.07220635 95.63149189 -27.85723877 96.787323 C-1.53707708 106.25024654 25.47178542 117.85942328 38.60546875 144.22265625 C45.89109645 161.12274866 47.08969697 182.11191276 41.3203125 199.72265625 C32.77455466 220.935351 18.86156345 236.52815013 -2.16796875 245.91796875 C-38.31589131 261.17169453 -79.32721496 259.0539651 -115.40234375 244.92578125 C-130.31312858 238.86462836 -143.76146946 231.56833108 -156 221 C-151.29194796 213.12374752 -145.97033712 205.79249616 -140.49902344 198.43701172 C-134.52133307 190.39183751 -128.74247554 182.21405384 -123 174 C-118.79016754 174.87565422 -115.88648729 177.04355004 -112.4375 179.5 C-92.79919483 192.98957845 -69.64691621 201.9562101 -45.53515625 198.50390625 C-38.14289308 196.85393074 -32.61778437 194.63112026 -28.0625 188.3125 C-26.37535559 183.0525792 -25.93891182 178.12712231 -27.73828125 172.82421875 C-35.28771543 158.68618747 -57.95861818 152.9703482 -71.9375 147.5625 C-90.90913345 140.21089827 -108.12593114 132.20959156 -123 118 C-123.62648438 117.44828125 -124.25296875 116.8965625 -124.8984375 116.328125 C-136.12162512 106.06982681 -142.55979383 90.92673186 -143.23828125 75.85546875 C-143.76310142 53.92834072 -138.31533683 35.35542762 -123 19 C-92.85708871 -12.5001906 -38.60068093 -14.16772245 0 0 Z " fill="#58357D" transform="translate(1416,227)"/>
<path d="M0 0 C25.08 0 50.16 0 76 0 C76.01458252 8.6521875 76.02916504 17.304375 76.04418945 26.21875 C76.09295122 53.90513084 76.15636153 81.59146081 76.22898628 109.27778894 C76.24025439 113.57858426 76.25139285 117.87937991 76.26245117 122.18017578 C76.26465486 123.03638374 76.26685854 123.89259169 76.269129 124.77474535 C76.3044976 138.63679736 76.32936421 152.49884932 76.35034702 166.36092973 C76.37211255 180.58560056 76.40517014 194.81021286 76.44870156 209.03483391 C76.4752053 217.8115875 76.49291008 226.58826816 76.49934604 235.36505979 C76.50460383 241.38432653 76.52083394 247.40350151 76.54566566 253.42271906 C76.55966729 256.89506177 76.5688565 260.36724027 76.56500816 263.83961296 C76.56335869 267.60737908 76.58002817 271.37463745 76.60127258 275.14233398 C76.59642501 276.23573341 76.59157743 277.32913284 76.58658296 278.45566559 C76.65422251 285.72037071 77.12651412 292.052835 82.4375 297.5 C87.60964557 299.6777455 92.46499393 299.32242754 98 299 C100.29870599 310.63479122 102.44074059 322.29308901 104.41079712 333.98797607 C104.63612112 335.32451332 104.8628163 336.66082016 105.09091187 337.99688721 C105.41390682 339.89302386 105.73050075 341.79024744 106.046875 343.6875 C106.23088867 344.78449219 106.41490234 345.88148438 106.60449219 347.01171875 C106.96311429 349.72130795 107.07718604 352.27191621 107 355 C86.38709498 364.45862094 58.87853137 363.70584302 37.75 356.3125 C22.64406599 349.6879708 13.20572613 337.89058459 7 323 C-0.98224312 300.14740988 -0.14792141 276.2345712 -0.11352539 252.36694336 C-0.1126832 249.60584994 -0.11335868 246.84475737 -0.1139679 244.08366394 C-0.11448872 238.17168152 -0.11138841 232.25971025 -0.10573006 226.34773064 C-0.09755472 217.80031682 -0.0949937 209.25290832 -0.09374207 200.70549101 C-0.09156096 186.83319865 -0.08492656 172.9609122 -0.07543945 159.08862305 C-0.06624087 145.62410512 -0.05917204 132.1595888 -0.05493164 118.69506836 C-0.05466892 117.8631759 -0.05440619 117.03128343 -0.05413551 116.17418211 C-0.05283034 112.00024295 -0.05156666 107.82630379 -0.05032361 103.65236461 C-0.03998035 69.10157115 -0.02155797 34.55078873 0 0 Z " fill="#58357D" transform="translate(1138,122)"/>
<path d="M0 0 C25.08 0 50.16 0 76 0 C76 83.16 76 166.32 76 252 C50.92 252 25.84 252 0 252 C0 168.84 0 85.68 0 0 Z " fill="#58357D" transform="translate(999,225)"/>
<path d="M0 0 C7.96630717 3.19868517 14.55237723 9.48397292 21 15 C21.33 11.7 21.66 8.4 22 5 C23.32 4.67 24.64 4.34 26 4 C28.298735 5.45474017 30.24181952 6.89016815 32.3125 8.625 C32.92351562 9.12064453 33.53453125 9.61628906 34.1640625 10.12695312 C39.33098228 14.35204129 44.36193419 18.73843661 49.37207031 23.14746094 C54.1764018 27.35594516 59.13110494 31.32517303 64.2578125 35.13476562 C74.14567545 42.65192408 74.14567545 42.65192408 75.54125595 48.12116814 C75.73532423 50.54472193 75.74324128 52.90123146 75.68115234 55.33178711 C75.68246658 56.69394348 75.68246658 56.69394348 75.68380737 58.08361816 C75.67964887 61.06575507 75.6330796 64.04560305 75.5859375 67.02734375 C75.57473917 69.10240958 75.566202 71.17749134 75.56021118 73.25257874 C75.53736316 78.69947535 75.47847397 84.14540351 75.4119873 89.59191895 C75.35047823 95.15554709 75.32317771 100.71933257 75.29296875 106.28320312 C75.22872738 117.18922629 75.12639617 128.09453244 75 139 C73.10452271 139.55955505 73.10452271 139.55955505 71 140 C69.32763672 139.04711914 69.32763672 139.04711914 67.6796875 137.53515625 C67.06722168 136.98649902 66.45475586 136.4378418 65.82373047 135.87255859 C65.18064941 135.27523926 64.53756836 134.67791992 63.875 134.0625 C62.52211098 132.84623358 61.16794461 131.63138648 59.8125 130.41796875 C59.15636719 129.8254834 58.50023437 129.23299805 57.82421875 128.62255859 C55.57280354 126.62002841 53.24537056 124.73464927 50.875 122.875 C46.38285534 119.34117954 42.03517742 115.65620278 37.69726562 111.9362793 C34.68122926 109.36571187 31.61996279 106.96016695 28.375 104.6875 C24.96352294 102.13068772 23.29512353 100.19010553 22 96 C22.03351563 95.06027344 22.06703125 94.12054688 22.1015625 93.15234375 C22.35151155 86.84752203 22.35151155 86.84752203 19.67236328 81.31347656 C16.28578335 77.96554943 12.5250768 75.13722542 8.69799805 72.31665039 C6.2466843 70.41586894 4.13328606 68.2457616 2 66 C1.49855469 65.49597656 0.99710937 64.99195313 0.48046875 64.47265625 C-12.06541414 50.78968428 -18.58607302 32.25740183 -18.2890625 13.91015625 C-17.91393496 8.83579586 -16.8970055 6.13857928 -14 2 C-9.46890009 -1.02073327 -5.3056153 -0.77592002 0 0 Z M-2.875 22.0625 C-5.79320775 29.68226469 -3.09520513 36.8297467 0 44 C5.32299989 53.58415783 12.9708814 60.02999032 22 66 C24.30943503 47.70336365 24.30943503 47.70336365 20.56005859 30.27539062 C16.77017385 25.91808519 12.21872293 23.34549345 7 21 C6.34 20.67 5.68 20.34 5 20 C0.50228716 19.37065603 0.50228716 19.37065603 -2.875 22.0625 Z " fill="#58357D" transform="translate(390,239)"/>
<path d="M0 0 C6.7400246 6.20362126 10.99242461 14.8742602 11.61328125 24.00390625 C11.98007236 37.39343415 9.17961139 47.22475878 -0.1796875 57.1484375 C-10.80861467 67.16709134 -23.55902826 67.9790575 -37.37109375 67.76953125 C-48.59258183 67.36556564 -57.37084738 63.05962845 -65.625 55.5 C-73.60027588 46.02732538 -76.32907966 35.72875201 -75.625 23.5 C-74.48840265 13.82268544 -70.03810033 6.0158505 -62.9921875 -0.64453125 C-44.89131457 -14.83250921 -17.81540756 -14.31754052 0 0 Z " fill="#58357D" transform="translate(1068.625,121.5)"/>
<path d="M0 0 C17.11164564 21.21099122 25.38457882 50.78477001 22.72265625 77.81640625 C21.62955043 84.46873595 19.41118423 91.77185493 14.3984375 96.515625 C9.95844193 99.39452623 6.06861469 99.43694954 1 99 C-0.92146774 97.07853226 -0.12016542 94.21281685 -0.12442017 91.65637207 C-0.12082489 90.74359497 -0.11722961 89.83081787 -0.11352539 88.89038086 C-0.11367142 87.93438492 -0.11381744 86.97838898 -0.1139679 85.99342346 C-0.11326835 82.81720755 -0.10547403 79.64104948 -0.09765625 76.46484375 C-0.09579222 74.26908907 -0.09436825 72.07333398 -0.09336853 69.87757874 C-0.08954219 64.08579367 -0.07971091 58.2940335 -0.06866455 52.5022583 C-0.05845293 46.59721209 -0.05387145 40.69216187 -0.04882812 34.78710938 C-0.03808875 23.19139528 -0.02101093 11.59569971 0 0 Z " fill="#58357D" transform="translate(240,172)"/>
<path d="M0 0 C4.2536509 1.5911146 7.05546004 3.50968509 10.5 6.5 C11.4178125 7.2940625 12.335625 8.088125 13.28125 8.90625 C14.07559448 9.6170874 14.07559448 9.6170874 14.88598633 10.34228516 C17.11166385 12.16415758 17.11166385 12.16415758 20.27612305 13.91943359 C29.07729107 19.28959946 29.07729107 19.28959946 30.67999268 23.99743652 C31.61199572 29.53123362 31.1887543 35.05599955 30.8125 40.625 C30.74718065 42.31357804 30.68788416 44.00240038 30.63476562 45.69140625 C30.49254169 49.80037808 30.26902431 53.8974588 30 58 C27.01018479 56.6145574 24.5384329 54.99132948 21.953125 52.953125 C21.19 52.355 20.426875 51.756875 19.640625 51.140625 C18.85171875 50.51671875 18.0628125 49.8928125 17.25 49.25 C15.69324812 48.02535519 14.13596015 46.80139152 12.578125 45.578125 C11.82015625 44.95953613 11.0621875 44.34094727 10.28125 43.70361328 C8.07803273 41.9481655 8.07803273 41.9481655 5.65625 40.85498047 C3.00783882 39.46092538 1.67447044 38.50677107 0 36 C-0.99916042 29.84867435 -0.75280668 23.83188111 -0.5 17.625 C-0.45984413 15.91805173 -0.423347 14.21101321 -0.390625 12.50390625 C-0.30273436 8.33370208 -0.16486216 4.16784213 0 0 Z " fill="#58357D" transform="translate(187,194)"/>
<path d="M0 0 C4.2536509 1.5911146 7.05546004 3.50968509 10.5 6.5 C11.4178125 7.2940625 12.335625 8.088125 13.28125 8.90625 C14.07559448 9.6170874 14.07559448 9.6170874 14.88598633 10.34228516 C17.11166385 12.16415758 17.11166385 12.16415758 20.27612305 13.91943359 C29.07729107 19.28959946 29.07729107 19.28959946 30.67999268 23.99743652 C31.61199572 29.53123362 31.1887543 35.05599955 30.8125 40.625 C30.74718065 42.31357804 30.68788416 44.00240038 30.63476562 45.69140625 C30.49254169 49.80037808 30.26902431 53.8974588 30 58 C27.01018479 56.6145574 24.5384329 54.99132948 21.953125 52.953125 C21.19 52.355 20.426875 51.756875 19.640625 51.140625 C18.85171875 50.51671875 18.0628125 49.8928125 17.25 49.25 C15.69324812 48.02535519 14.13596015 46.80139152 12.578125 45.578125 C11.82015625 44.95953613 11.0621875 44.34094727 10.28125 43.70361328 C8.07803273 41.9481655 8.07803273 41.9481655 5.65625 40.85498047 C3.00783882 39.46092538 1.67447044 38.50677107 0 36 C-0.99916042 29.84867435 -0.75280668 23.83188111 -0.5 17.625 C-0.45984413 15.91805173 -0.423347 14.21101321 -0.390625 12.50390625 C-0.30273436 8.33370208 -0.16486216 4.16784213 0 0 Z " fill="#58357D" transform="translate(187,132)"/>
</svg>
