<?xml version="1.0" encoding="UTF-8"?>
<svg version="1.1" xmlns="http://www.w3.org/2000/svg" width="1280" height="1280">
<path d="M0 0 C0.92025089 -0.00282738 1.84050179 -0.00565475 2.78863907 -0.00856781 C7.67436243 -0.02348166 12.56005695 -0.03275611 17.44580078 -0.03710938 C21.41334385 -0.04146293 25.38066564 -0.05524393 29.34814453 -0.078125 C52.97224204 -0.21157333 76.10509384 0.2586123 99.5703125 3.203125 C101.24839731 3.3997801 102.92660577 3.59538528 104.60498047 3.78955078 C108.60230154 4.2652214 112.58641781 4.81213677 116.5703125 5.390625 C117.27101868 5.49194733 117.97172485 5.59326965 118.69366455 5.69766235 C171.84735328 13.46449514 224.26212461 27.83679568 273.5703125 49.203125 C274.89724121 49.77643555 274.89724121 49.77643555 276.25097656 50.36132812 C282.0644497 52.89008859 287.82639574 55.52055016 293.5703125 58.203125 C294.52583008 58.64736816 295.48134766 59.09161133 296.46582031 59.54931641 C341.09512579 80.37775468 383.20773156 106.27102503 421.5703125 137.203125 C422.51132813 137.96109375 423.45234375 138.7190625 424.421875 139.5 C427.1516597 141.71844174 429.86493236 143.95499221 432.5703125 146.203125 C433.07916992 146.62561523 433.58802734 147.04810547 434.11230469 147.48339844 C441.12047406 153.31572906 447.96285906 159.29238218 454.64453125 165.49609375 C456.48748372 167.20125538 458.34268954 168.89335854 460.21484375 170.56640625 C467.3294487 176.94817635 474.11803659 183.64273939 480.8828125 190.390625 C481.35893982 190.86416412 481.83506714 191.33770325 482.32562256 191.82559204 C487.42071704 196.89883566 492.40278446 202.01205186 497.08374023 207.47143555 C499.14593138 209.87365623 501.29717793 212.19028741 503.4453125 214.515625 C507.4628912 218.92530973 511.29696854 223.43735477 515.0390625 228.08203125 C516.92835748 230.42601451 518.85178602 232.73849237 520.7890625 235.04296875 C528.59882391 244.36008866 535.91683017 253.91468916 542.9140625 263.85546875 C544.61105561 266.26087644 546.32405468 268.65428597 548.0390625 271.046875 C556.41373408 282.79068067 564.14923435 294.8376098 571.5703125 307.203125 C572.11623047 308.10417969 572.66214844 309.00523437 573.22460938 309.93359375 C610.03263303 370.83648469 635.85236883 437.59391881 650.5703125 507.203125 C650.94518799 508.96922119 650.94518799 508.96922119 651.32763672 510.77099609 C654.7620922 527.24636434 657.31688051 543.74621607 659.3203125 560.453125 C659.42127228 561.28376465 659.52223206 562.1144043 659.62625122 562.97021484 C662.62819797 587.96424702 663.9581701 612.90930751 663.8828125 638.078125 C663.88098969 639.35650238 663.87916687 640.63487976 663.87728882 641.95199585 C663.82586569 663.5096763 662.98392525 684.78407967 660.5703125 706.203125 C660.40219676 707.74493841 660.23423052 709.28676812 660.06640625 710.82861328 C655.08140188 755.92174569 645.22643179 800.26421729 630.5703125 843.203125 C630.20357422 844.28658203 629.83683594 845.37003906 629.45898438 846.48632812 C616.54940422 884.38501098 600.31451029 921.22601016 580.00488281 955.76025391 C578.65459746 958.05959959 577.32416879 960.36913661 576 962.68359375 C553.51507427 1001.77435912 525.91180762 1038.24355945 495.26171875 1071.29296875 C493.50699811 1073.1903082 491.76415235 1075.09872048 490.03515625 1077.01953125 C484.47692859 1083.18136734 478.74035814 1089.13709141 472.8828125 1095.015625 C472.1820459 1095.72098389 471.4812793 1096.42634277 470.75927734 1097.15307617 C466.78285735 1101.11780356 462.70465272 1104.8994147 458.45239258 1108.56616211 C455.65436394 1110.99978282 452.96228429 1113.54172291 450.2578125 1116.078125 C445.5166651 1120.48413647 440.67301567 1124.69187673 435.62109375 1128.7421875 C433.30477616 1130.61066391 431.01579199 1132.49927679 428.73828125 1134.4140625 C419.38035297 1142.25995352 409.77333366 1149.59685867 399.79345703 1156.6328125 C397.6063863 1158.17764436 395.4291353 1159.73542614 393.25390625 1161.296875 C320.96012688 1213.02646421 237.34786167 1248.77151187 65.375 1277.02392578 C62.85573439 1277.18488861 60.33824002 1277.36258151 57.8203125 1277.54296875 C-9.5885051 1281.99592657 -78.32293341 1273.55666071 -143.4296875 1256.203125 C-144.44008087 1255.93562439 -144.44008087 1255.93562439 -145.47088623 1255.66271973 C-197.154498 1241.94941702 -247.05812534 1220.78590339 -293.4296875 1194.203125 C-294.2139209 1193.75646484 -294.9981543 1193.30980469 -295.80615234 1192.84960938 C-324.12375792 1176.61441713 -350.99814742 1157.62712732 -376.4296875 1137.203125 C-377.40421875 1136.42324219 -378.37875 1135.64335938 -379.3828125 1134.83984375 C-384.77026514 1130.48323052 -389.98265034 1125.97691865 -395.10546875 1121.3125 C-397.15011085 1119.45685843 -399.21752899 1117.63556124 -401.3046875 1115.828125 C-411.34847149 1107.05175826 -420.92786246 1097.86694416 -430.34057617 1088.42260742 C-432.25390944 1086.50386995 -434.17259254 1084.59059746 -436.09179688 1082.67773438 C-442.08401232 1076.68910569 -447.97291152 1070.69073843 -453.4296875 1064.203125 C-454.45085544 1063.0344713 -455.47429758 1061.86780091 -456.5 1060.703125 C-517.39429565 991.06873015 -563.54826609 908.55575577 -615.4296875 651.203125 C-615.45160156 650.24760742 -615.47351563 649.29208984 -615.49609375 648.30761719 C-617.12219967 568.87234283 -602.72886553 489.32220863 -530.81738281 320.56982422 C-529.55681502 318.4199396 -528.32689908 316.25648467 -527.109375 314.08203125 C-512.3823421 288.0247778 -494.70320754 262.99648404 -475.77148438 239.84472656 C-474.54253304 238.3411842 -473.32163267 236.83107052 -472.1015625 235.3203125 C-457.81649559 217.69521195 -442.56760262 201.1412585 -426.4296875 185.203125 C-423.6627812 182.44505866 -420.90736682 179.67608917 -418.16015625 176.8984375 C-412.09026812 170.77233882 -406.01687129 164.77512109 -399.4296875 159.203125 C-398.32014504 158.23214544 -397.21223714 157.25929664 -396.10546875 156.28515625 C-388.36856407 149.49024154 -380.48537304 142.96546137 -372.33105469 136.67919922 C-370.28186413 135.08836638 -368.24964072 133.47740188 -366.21875 131.86328125 C-356.30020199 124.0104595 -346.12483555 116.68617385 -335.60498047 109.66113281 C-333.65274007 108.3526278 -331.71276951 107.02849855 -329.77734375 105.6953125 C-306.91915901 90.04333267 -282.51076873 76.34789827 -257.59423828 64.25878906 C-255.2082101 63.09510918 -252.83315167 61.91033368 -250.45703125 60.7265625 C-206.4454845 39.00709482 -159.24873114 23.90775589 -111.4296875 13.203125 C-110.26244141 12.94144531 -109.09519531 12.67976562 -107.89257812 12.41015625 C-86.4844829 7.71633904 -64.85482946 5.00585455 -43.109375 2.40234375 C-41.78271065 2.24182526 -41.78271065 2.24182526 -40.429245 2.07806396 C-26.92979013 0.49580859 -13.57634907 0.02859892 0 0 Z " fill="#DD4814" transform="translate(615.4296875,-0.203125)"/>
<path d="M0 0 C1.23242187 1.62524414 1.23242187 1.62524414 2.46875 3.78515625 C2.94731445 4.60902832 3.42587891 5.43290039 3.91894531 6.28173828 C4.44069336 7.19938965 4.96244141 8.11704102 5.5 9.0625 C6.67110801 11.08247612 7.84303253 13.101979 9.015625 15.12109375 C9.65306641 16.22437012 10.29050781 17.32764648 10.94726562 18.46435547 C14.26830163 24.19830034 17.65643439 29.89275129 21.04077148 35.58947754 C21.84996162 36.9516061 22.65871497 38.31399423 23.46704102 39.67663574 C28.89879461 48.83315985 34.38284604 57.95579017 39.92428589 67.04632568 C42.32540856 70.98863818 44.71606354 74.93730912 47.10791016 78.88525391 C48.34497602 80.92170375 49.58665293 82.95536156 50.83349609 84.98583984 C52.46646285 87.64851466 54.07950943 90.32219385 55.6875 93 C56.16380859 93.76546143 56.64011719 94.53092285 57.13085938 95.31958008 C58.38671875 97.4375 58.38671875 97.4375 60 101 C58.49893786 105.29973835 55.22144138 107.38224809 51.6875 110 C44.37245051 115.59092249 37.62191623 121.60988948 31 128 C30.41154297 128.56654297 29.82308594 129.13308594 29.21679688 129.71679688 C21.6101918 137.07933976 14.43030973 144.56662034 8 153 C7.35683838 153.836521 7.35683838 153.836521 6.70068359 154.68994141 C-8.19550851 174.15169221 -20.65951066 195.92204788 -29 219 C-29.37850098 220.01078613 -29.75700195 221.02157227 -30.14697266 222.06298828 C-34.94966938 235.10095612 -38.07652482 248.433397 -41 262 C-41.29898193 263.37526855 -41.29898193 263.37526855 -41.60400391 264.77832031 C-44.36732658 278.23196606 -44.3024529 291.88524563 -44.375 305.5625 C-44.3871907 306.91616669 -44.3871907 306.91616669 -44.39962769 308.29718018 C-44.49048768 321.78153827 -43.24863537 334.71102099 -41 348 C-40.72591309 349.69878296 -40.72591309 349.69878296 -40.44628906 351.43188477 C-33.59459102 391.98267984 -15.31588192 431.44685044 11 463 C11.46341797 463.56493164 11.92683594 464.12986328 12.40429688 464.71191406 C26.42954972 481.78655315 41.98141195 496.20924214 60 509 C59.41773516 513.21243452 57.97966286 516.06525364 55.74609375 519.6640625 C55.06498535 520.77168945 54.38387695 521.87931641 53.68212891 523.02050781 C53.31710266 523.60658813 52.95207642 524.19266846 52.57598877 524.79650879 C51.01698337 527.30037862 49.47491627 529.81452233 47.93206787 532.32836914 C47.13192697 533.63206004 46.33101526 534.93527815 45.52935791 536.23803711 C41.65832306 542.53463235 37.88178205 548.88451385 34.125 555.25 C33.16291626 556.87760254 33.16291626 556.87760254 32.18139648 558.53808594 C30.84092708 560.80609097 29.50083235 563.07431392 28.16113281 565.34277344 C24.5280015 571.49286089 20.88593369 577.63765093 17.24163818 583.78112793 C16.04186499 585.80439977 14.84340758 587.8284466 13.64501953 589.85253906 C8.8436519 597.95243999 3.96210393 605.99742434 -1 614 C-5.37109832 612.34918078 -8.93209345 610.12133752 -12.6875 607.375 C-13.61550415 606.70295532 -13.61550415 606.70295532 -14.56225586 606.01733398 C-19.84028055 602.16950138 -24.97045268 598.16800449 -30 594 C-31.43859375 592.82244141 -31.43859375 592.82244141 -32.90625 591.62109375 C-69.76326376 561.16971072 -100.96178782 523.49720475 -123 481 C-123.51651123 480.01241699 -123.51651123 480.01241699 -124.04345703 479.00488281 C-128.17837919 471.05872692 -131.98693317 462.96900869 -135.6875 454.8125 C-136.04400635 454.02955566 -136.4005127 453.24661133 -136.76782227 452.43994141 C-141.94866952 440.87612751 -146.0579753 429.05156756 -149.75 416.9375 C-150.15195386 415.63334331 -150.55429626 414.32930631 -150.95703125 413.02539062 C-154.0859792 402.84835482 -154.0859792 402.84835482 -155 399 C-154.28457031 398.40316406 -153.56914062 397.80632812 -152.83203125 397.19140625 C-134.96211642 381.82406818 -122.48584337 361.83780791 -115.9375 339.25 C-115.61652344 338.16203125 -115.29554688 337.0740625 -114.96484375 335.953125 C-107.00216289 305.18840794 -111.83768456 272.68150369 -127.66259766 245.3684082 C-130.73320698 240.25398567 -134.07911918 235.50394284 -138 231 C-138.721875 230.15824219 -139.44375 229.31648437 -140.1875 228.44921875 C-143.63048865 224.52351379 -146.82760735 221.04156901 -151.125 218.0625 C-153.23539635 216.29074864 -153.91573798 215.49439453 -154.3828125 212.75390625 C-153.81936682 201.60099613 -148.95648115 190.33841477 -145 180 C-144.599021 178.94365356 -144.599021 178.94365356 -144.18994141 177.8659668 C-138.84617876 163.88677006 -132.67467801 150.39119581 -126 137 C-125.61199219 136.21995605 -125.22398437 135.43991211 -124.82421875 134.63623047 C-111.30713969 107.70356986 -93.60820172 82.55464802 -73.1953125 60.40625 C-71.33941162 58.37202413 -69.53668814 56.30728309 -67.73828125 54.22265625 C-64.01233606 49.9546288 -60.07910506 45.9308653 -56.0625 41.9375 C-55.39798828 41.26912109 -54.73347656 40.60074219 -54.04882812 39.91210938 C-49.53081088 35.40285647 -44.84294146 31.15609882 -40 27 C-39.02417969 26.14277344 -38.04835938 25.28554688 -37.04296875 24.40234375 C-30.56526536 18.81078309 -23.88895304 13.57790904 -17 8.5 C-16.18684326 7.90050537 -15.37368652 7.30101074 -14.53588867 6.68334961 C-3.69509967 -1.23169989 -3.69509967 -1.23169989 0 0 Z " fill="#FEFEFE" transform="translate(436,332)"/>
<path d="M0 0 C2.3306014 0.51983674 4.67334822 0.98982809 7.02734375 1.390625 C9.84297321 1.94451932 12.14716397 2.46796227 14.67773438 3.8203125 C16.56314969 6.6488112 17.05635365 9.51482329 17.67773438 12.8203125 C18.15914326 14.45171724 18.66220005 16.07687373 19.18554688 17.6953125 C19.4449707 18.52667725 19.70439453 19.35804199 19.97167969 20.21459961 C28.25184702 46.17647562 43.97412293 70.37373274 67.67773438 84.8203125 C68.73476563 85.47515625 69.79179688 86.13 70.88085938 86.8046875 C97.79995889 103.06488031 130.06359032 108.46204166 160.8527832 101.41918945 C163.78970971 100.69026066 166.58180105 99.8606323 169.37304688 98.6875 C172.07226134 97.67186337 173.80760169 97.53049542 176.67773438 97.8203125 C178.66308594 99.20629883 178.66308594 99.20629883 180.56835938 101.15234375 C181.27323486 101.86277832 181.97811035 102.57321289 182.7043457 103.30517578 C183.43806396 104.0732959 184.17178223 104.84141602 184.92773438 105.6328125 C185.68916748 106.41382324 186.45060059 107.19483398 187.23510742 107.99951172 C192.74016512 113.70065288 197.81220672 119.56463409 202.67773438 125.8203125 C203.5259375 126.82835937 204.37414062 127.83640625 205.24804688 128.875 C238.11863895 168.08863829 261.89561283 216.44676727 274.67773438 265.8203125 C274.92475098 266.74360352 275.17176758 267.66689453 275.42626953 268.61816406 C278.88967553 281.63390262 281.4878634 294.70833787 283.55273438 308.0078125 C283.7169841 309.03847839 283.7169841 309.03847839 283.884552 310.08996582 C284.20060853 312.09605729 284.50036731 314.10393055 284.79492188 316.11328125 C284.96620605 317.2633667 285.13749023 318.41345215 285.31396484 319.59838867 C285.99815222 325.63696112 285.74518123 331.7538426 285.67773438 337.8203125 C275.21688898 337.95337002 264.75601477 338.08387534 254.29510117 338.21146393 C249.43320956 338.27083587 244.57133017 338.33096105 239.70947266 338.39306641 C214.69750121 338.71191351 189.69180413 338.89680993 164.67773438 338.8203125 C164.5316272 337.94401184 164.38552002 337.06771118 164.23498535 336.16485596 C153.45307152 271.61398735 127.37173373 211.15172439 74.67773438 169.8203125 C73.58559074 168.93873469 72.49448842 168.05586569 71.40429688 167.171875 C55.86613807 154.64231402 39.38695768 145.22140692 21.56982422 136.28222656 C19.90347562 135.43990887 18.24326716 134.58463115 16.60205078 133.69433594 C10.06177098 130.18628787 2.97112026 128.07503627 -4.07226562 125.8203125 C-4.75436096 125.59965118 -5.4364563 125.37898987 -6.13922119 125.15164185 C-16.29980907 121.87732382 -26.40130865 119.2306428 -36.93945312 117.44140625 C-40.32226562 116.8203125 -40.32226562 116.8203125 -41.32226562 115.8203125 C-70.98136617 111.30051631 -105.10959464 110.7240008 -134.32226562 117.8203125 C-136.06681651 118.21071293 -137.81161056 118.60002828 -139.55664062 118.98828125 C-154.73088248 122.48035725 -169.43199269 127.25632835 -183.59960938 133.71875 C-186.32226562 134.8203125 -186.32226562 134.8203125 -189.32226562 134.8203125 C-189.64799561 134.21372803 -189.97372559 133.60714355 -190.30932617 132.98217773 C-196.85441796 120.80874084 -203.4809278 108.69036989 -210.30786133 96.67260742 C-215.75276478 87.08260397 -221.10580857 77.44262775 -226.45117188 67.796875 C-228.78527742 63.58532375 -231.12614427 59.37775037 -233.47723389 55.17565918 C-234.86422359 52.69656983 -236.24907442 50.21628849 -237.6338501 47.73596191 C-238.61242942 45.98527222 -239.59402184 44.23626784 -240.57568359 42.48730469 C-241.16881348 41.42415039 -241.76194336 40.36099609 -242.37304688 39.265625 C-243.15675659 37.86594482 -243.15675659 37.86594482 -243.95629883 36.43798828 C-245.25755607 33.94431891 -246.32911797 31.44987973 -247.32226562 28.8203125 C-244.86651759 27.56501698 -242.40785014 26.31606624 -239.94726562 25.0703125 C-239.26792969 24.72226562 -238.58859375 24.37421875 -237.88867188 24.015625 C-219.22657861 14.59737232 -198.59420366 7.80580187 -178.32226562 2.8203125 C-177.36271973 2.5821582 -176.40317383 2.34400391 -175.41455078 2.09863281 C-159.8328345 -1.73066921 -144.2149409 -4.95070079 -128.32226562 -7.1796875 C-127.50628906 -7.29828125 -126.6903125 -7.416875 -125.84960938 -7.5390625 C-84.29056897 -13.29023119 -40.68167731 -9.29367414 0 0 Z " fill="#FEFEFD" transform="translate(723.322265625,277.1796875)"/>
<path d="M0 0 C8.70831501 -0.03149442 17.41663572 -0.05128001 26.125 -0.0625 C27.11434288 -0.06378403 27.11434288 -0.06378403 28.12367249 -0.06509399 C50.3366849 -0.09047159 72.5404073 0.11492271 94.75 0.5 C95.78503536 0.51793673 95.78503536 0.51793673 96.84098053 0.53623581 C105.22748115 0.6823355 113.61381565 0.83673334 122 1 C120.06664998 48.26532019 107.34552917 94.36587481 87 137 C86.57315918 137.89750977 86.14631836 138.79501953 85.70654297 139.71972656 C74.31330213 163.50598074 60.33608229 185.32037744 44 206 C43.31164062 206.88300781 42.62328125 207.76601563 41.9140625 208.67578125 C37.85074396 213.8392473 33.58833165 218.76757045 29.16015625 223.62109375 C27.19730067 225.78271952 25.2803374 227.97526262 23.375 230.1875 C22.81554687 230.81914063 22.25609375 231.45078125 21.6796875 232.1015625 C20.51960471 233.41272584 19.38006599 234.74225283 18.2578125 236.0859375 C17.67773438 236.73820313 17.09765625 237.39046875 16.5 238.0625 C15.9946875 238.65160156 15.489375 239.24070312 14.96875 239.84765625 C10.28234237 242.59069246 2.93661174 239.32042045 -2.125 238 C-34.56401161 229.63255401 -66.32351354 236.16791614 -94.8203125 252.96875 C-99.53094047 255.97799637 -103.78201956 259.34161896 -108 263 C-109.21236328 263.99580078 -109.21236328 263.99580078 -110.44921875 265.01171875 C-126.75361082 278.85893399 -140.91717935 300.36994219 -144.9375 321.61328125 C-145.08791748 322.38551025 -145.23833496 323.15773926 -145.39331055 323.95336914 C-145.66596943 325.44719681 -145.90136521 326.94846971 -146.09301758 328.45483398 C-146.45703125 330.515625 -146.45703125 330.515625 -148 334 C-150.83121606 335.71523059 -153.78236612 336.32661858 -157 337 C-157.86246338 337.20512207 -158.72492676 337.41024414 -159.61352539 337.62158203 C-162.44261046 338.27431042 -165.27889946 338.8636479 -168.125 339.4375 C-169.69000244 339.75618042 -169.69000244 339.75618042 -171.28662109 340.08129883 C-174.52223524 340.73256052 -177.76021687 341.36982267 -181 342 C-181.99 342.19271484 -182.98 342.38542969 -184 342.58398438 C-205.10718961 346.62669206 -225.65854152 348.17736106 -247.125 348.25 C-248.0072525 348.25535767 -248.889505 348.26071533 -249.79849243 348.26623535 C-262.65251892 348.32537758 -275.23983568 347.53472281 -288 346 C-289.24040039 345.85401367 -290.48080078 345.70802734 -291.75878906 345.55761719 C-318.13768268 342.29369729 -345.47313384 337.63109898 -370 327 C-371.87914407 326.34517683 -373.7586368 325.69105447 -375.64575195 325.05957031 C-387.80996587 320.98107506 -399.54933651 315.77916995 -411 310 C-409.72701932 305.85871685 -408.17498763 302.22950386 -406.05078125 298.45703125 C-405.45773193 297.39726074 -404.86468262 296.33749023 -404.25366211 295.24560547 C-403.29278687 293.54621826 -403.29278687 293.54621826 -402.3125 291.8125 C-401.63821286 290.61114299 -400.96447605 289.40947695 -400.29125977 288.20751953 C-398.89255637 285.71121949 -397.49149828 283.21626302 -396.08886719 280.72216797 C-392.84755023 274.95322368 -389.64559141 269.16246774 -386.4375 263.375 C-375.40776575 243.51659031 -364.31428985 223.69792106 -353 204 C-347.37745803 204.61154271 -342.65876227 206.64131694 -337.5 208.8125 C-329.41529841 212.12561365 -321.47741309 214.84901459 -313 217 C-311.76378906 217.33644531 -310.52757812 217.67289063 -309.25390625 218.01953125 C-298.95653438 220.77656122 -288.55858283 222.56732584 -278 224 C-276.78159424 224.17418457 -275.56318848 224.34836914 -274.30786133 224.52783203 C-269.7664845 225.08853606 -265.27076539 225.16174804 -260.69921875 225.16796875 C-259.82336624 225.17129715 -258.94751373 225.17462555 -258.04512024 225.17805481 C-256.19536865 225.18309389 -254.34560806 225.18546407 -252.49584961 225.18530273 C-249.73339835 225.18746409 -246.97136386 225.20558234 -244.20898438 225.22460938 C-228.23458448 225.27690795 -212.5913716 224.2170813 -197 220.5625 C-196.08089844 220.35818359 -195.16179687 220.15386719 -194.21484375 219.94335938 C-175.82658889 215.79242421 -157.83264976 210.5604468 -141 202 C-140.20867676 201.60683594 -139.41735352 201.21367188 -138.60205078 200.80859375 C-117.37509626 190.24558956 -97.86883336 177.47694447 -80.48046875 161.29296875 C-78.36490252 159.33731934 -76.20756709 157.47434119 -74 155.625 C-63.16694897 146.13234677 -54.43152515 134.60104008 -46 123 C-45.49855469 122.31228516 -44.99710938 121.62457031 -44.48046875 120.91601562 C-37.67165292 111.45733084 -31.94274049 101.51446725 -26.5625 91.1875 C-25.69347046 89.52485107 -25.69347046 89.52485107 -24.80688477 87.82861328 C-21.00717542 80.38841419 -17.86822972 72.84200825 -15 65 C-14.45646844 63.58304953 -13.91231065 62.16633892 -13.3671875 60.75 C-9.06093417 48.93856231 -5.79592072 36.85519095 -3.1875 24.5625 C-2.8773999 23.12680664 -2.8773999 23.12680664 -2.56103516 21.66210938 C-1.50545471 16.48807841 -0.8154634 11.40605033 -0.4387207 6.13647461 C-0.3547554 4.98239609 -0.2707901 3.82831757 -0.1842804 2.63926697 C-0.0930616 1.33282982 -0.0930616 1.33282982 0 0 Z " fill="#FEFEFE" transform="translate(887,661)"/>
<path d="M0 0 C17.81711643 14.54458484 31.49309887 32.13037755 35.0078125 55.52734375 C37.24121418 81.39254974 31.76390341 103.73118121 15.51171875 124.26171875 C2.10184236 140.08395386 -16.20463539 150.31004529 -36.703125 153.875 C-64.50981612 155.68688436 -86.07027812 151.42590705 -107.703125 132.875 C-114.56529872 126.24877495 -119.8844904 119.07534988 -124.703125 110.875 C-125.15300781 110.20726562 -125.60289062 109.53953125 -126.06640625 108.8515625 C-136.11637628 93.10764661 -137.38707774 70.3828066 -134.28637695 52.46704102 C-133.82681944 50.58505414 -133.26996562 48.72750086 -132.703125 46.875 C-132.43113281 45.90175781 -132.15914063 44.92851563 -131.87890625 43.92578125 C-127.87035158 31.21086351 -121.58358116 20.77766694 -112.703125 10.875 C-112.15140625 10.24078125 -111.5996875 9.6065625 -111.03125 8.953125 C-82.79929145 -21.51502829 -32.80225419 -24.65672798 0 0 Z " fill="#FEFEFE" transform="translate(255.703125,569.125)"/>
<path d="M0 0 C14.85785178 12.5821278 24.73587592 27.22023601 29.65234375 46.24609375 C29.85988281 47.00664062 30.06742188 47.7671875 30.28125 48.55078125 C33.61334567 63.13743782 33.03817932 79.30628404 27.65234375 93.24609375 C27.27851562 94.26703125 26.9046875 95.28796875 26.51953125 96.33984375 C17.30276005 120.02267306 0.6737157 136.12200399 -22.34765625 146.24609375 C-23.50136719 146.77847656 -24.65507813 147.31085938 -25.84375 147.859375 C-42.11327344 154.1854219 -65.72383395 154.11099465 -81.98046875 147.796875 C-83.09164062 147.28511719 -84.2028125 146.77335938 -85.34765625 146.24609375 C-86.26369629 145.84463135 -86.26369629 145.84463135 -87.19824219 145.43505859 C-95.01937477 141.98883419 -101.86292669 137.81890822 -108.34765625 132.24609375 C-109.30671875 131.5190625 -109.30671875 131.5190625 -110.28515625 130.77734375 C-125.99257712 118.36341436 -135.48799795 97.66607213 -138.34765625 78.24609375 C-140.09594635 50.29515504 -133.98570753 28.50136658 -115.609375 7.234375 C-84.88226676 -25.3994273 -34.5604261 -26.66090013 0 0 Z " fill="#FEFEFD" transform="translate(910.34765625,195.75390625)"/>
<path d="M0 0 C1.01320313 0.2784375 2.02640625 0.556875 3.0703125 0.84375 C15.12536874 4.49488975 25.63370447 10.62525041 35 19 C35.83273437 19.73863281 36.66546875 20.47726562 37.5234375 21.23828125 C52.51420421 35.32960196 62.41069024 55.26884589 63.31640625 75.8828125 C63.62621041 87.57593349 63.3861996 98.03450099 59 109 C58.62617187 110.01707031 58.25234375 111.03414062 57.8671875 112.08203125 C49.0988687 134.69964829 33.14690534 151.31851428 11.03515625 161.10693359 C10.36355469 161.40164551 9.69195313 161.69635742 9 162 C7.8346875 162.53238281 6.669375 163.06476563 5.46875 163.61328125 C-13.3724131 170.88351266 -37.90307195 169.26569381 -56.125 161.19921875 C-63.80232618 157.6440708 -70.58385015 153.55625348 -77 148 C-78.22009766 147.06607422 -78.22009766 147.06607422 -79.46484375 146.11328125 C-94.73435236 133.38476945 -105.40826536 111.5919633 -107.30126953 91.85961914 C-107.43582951 88.64979254 -107.46826405 85.46244027 -107.4375 82.25 C-107.42847656 81.11256348 -107.41945313 79.97512695 -107.41015625 78.80322266 C-106.95092435 56.36145265 -97.76562423 37.35451464 -82.375 21.25390625 C-60.08498652 -0.03176069 -29.65478535 -8.41064817 0 0 Z " fill="#FEFEFD" transform="translate(879,932)"/>
</svg>
