<?xml version="1.0" encoding="UTF-8"?>
<svg version="1.1" xmlns="http://www.w3.org/2000/svg" width="768" height="432">
<path d="M0 0 C57.09 0 114.18 0 173 0 C175.70153002 6.07844255 177.5758909 10.51952268 179 16.75 C180.46032901 22.99106267 182.21323189 29.05457137 184.265625 35.1328125 C185.05007634 38.19551082 185.1307906 40.85168353 185 44 C185.66 44 186.32 44 187 44 C187 46.31 187 48.62 187 51 C187.66 51 188.32 51 189 51 C189.26828613 52.09489746 189.26828613 52.09489746 189.54199219 53.21191406 C191.32560926 60.4271412 193.23302768 67.59676405 195.25 74.75 C195.55010986 75.81766602 195.85021973 76.88533203 196.15942383 77.98535156 C200.04370684 91.75974889 203.94082935 105.53906216 208.25 119.1875 C209.4867154 123.1418715 210.49554769 127.07648677 211.375 131.125 C212.79589896 137.64208407 214.82855125 143.90801601 217.01904297 150.20166016 C217.40213623 151.34900635 217.40213623 151.34900635 217.79296875 152.51953125 C218.0252417 153.19089111 218.25751465 153.86225098 218.49682617 154.55395508 C219 157 219 157 219 165 C199.53 165 180.06 165 160 165 C158.55625 160.42125 157.1125 155.8425 155.625 151.125 C154.94751709 148.9905542 154.94751709 148.9905542 154.25634766 146.81298828 C152.3309872 140.65648253 150.60287185 134.60044207 149.44824219 128.25390625 C148.68163034 124.39913469 147.48657436 120.68430483 146.3125 116.9375 C143.55091996 107.94207182 140.98888787 98.89983542 138.48144531 89.83056641 C136.68170769 83.34725962 134.78403568 76.92599677 132.62890625 70.55078125 C131.90855061 67.62909036 131.89027026 64.99781636 132 62 C131.34 62 130.68 62 130 62 C130 60.68 130 59.36 130 58 C112.51 58.33 95.02 58.66 77 59 C77.66 61.31 78.32 63.62 79 66 C79.125 69.4375 79.125 69.4375 79 72 C79.66 72 80.32 72 81 72 C81.24234375 73.00417969 81.4846875 74.00835937 81.734375 75.04296875 C83.37941724 81.77961127 85.08367492 88.45047833 87.1875 95.0625 C88.56275555 99.39615413 89.39288924 103.49003432 90 108 C90.61540725 110.10301039 91.32757086 112.16070636 92.046875 114.23046875 C95.31084617 123.71471285 98.23546801 133.19604648 100.2265625 143.03515625 C100.95389487 146.12833596 100.95389487 146.12833596 102.46484375 149.40234375 C104.03621518 153.08487068 105.01574965 156.60728606 105.9375 160.5 C106.27630483 161.90519881 106.61617597 163.3101409 106.95703125 164.71484375 C107.12799316 165.42366699 107.29895508 166.13249023 107.47509766 166.86279297 C108.31310061 170.27482918 109.21523142 173.66900739 110.125 177.0625 C110.43695313 178.22910156 110.74890625 179.39570313 111.0703125 180.59765625 C112.76917029 186.81490473 114.6046864 192.97870203 116.51269531 199.13427734 C119.10185935 207.50736589 121.54875755 215.81020817 123.3984375 224.37890625 C124.11090332 227.4832216 125.06967682 230.43670457 126.1171875 233.44140625 C129.37520439 242.88388882 132.25441624 252.35521784 134.32421875 262.1328125 C135.03968961 265.16839405 136.00821543 268.04341896 137 271 C138.32330064 275.28219799 139.59823006 279.5787222 140.875 283.875 C141.23432617 285.08357666 141.59365234 286.29215332 141.96386719 287.53735352 C143.8621264 293.97479707 145.6870648 300.41033402 147.25 306.9375 C148.56542349 312.43098662 150.1949179 317.70088673 152.0546875 323.03125 C153.46162104 327.44971897 154.42419417 331.94746194 155.38671875 336.48046875 C155.75014544 338.92341603 155.75014544 338.92341603 157 340 C157 341.98 157 343.96 157 346 C172.18 346 187.36 346 203 346 C203.66 343.03 204.32 340.06 205 337 C207.11380132 328.49864184 209.54532521 320.13430442 212.20751953 311.79101562 C213.78098985 306.81752902 215.12357723 301.82119808 216.32421875 296.74609375 C217.69697157 291.16779762 219.39781429 285.70250521 221.15722656 280.23706055 C223.46870639 273.05454924 225.66381532 265.90126299 227.359375 258.54296875 C228.09200759 255.63477475 229.04232274 252.8424676 230 250 C230.97924969 246.83959511 231.92695171 243.66988453 232.875 240.5 C233.11863281 239.69046875 233.36226562 238.8809375 233.61328125 238.046875 C235.81038886 230.71559364 237.89689313 223.36087404 240 216 C316.56 216 393.12 216 472 216 C472.0825 238.6875 472.165 261.375 472.25 284.75 C472.28641602 291.8975293 472.32283203 299.04505859 472.36035156 306.40917969 C472.37841797 315.17822266 472.37841797 315.17822266 472.3817749 319.2913208 C472.38548187 322.14675484 472.40039219 325.00188746 472.42230225 327.85723877 C472.44997379 331.51250802 472.45792193 335.16734624 472.4522891 338.82271051 C472.45401483 340.7795839 472.47534663 342.7364109 472.497715 344.6931572 C472.45979723 352.83859773 471.00129567 359.44560925 468 367 C467.41549949 368.58290283 466.83202405 370.16618491 466.25 371.75 C465.8375 372.8225 465.425 373.895 465 375 C464.34 375 463.68 375 463 375 C462.7525 375.721875 462.505 376.44375 462.25 377.1875 C459.85061547 382.5861152 455.98948938 386.03971532 451.4375 389.6875 C450.48746094 390.45449219 449.53742188 391.22148437 448.55859375 392.01171875 C443.42632613 396 443.42632613 396 440 396 C440 396.66 440 397.32 440 398 C438.78441406 398.34933594 437.56882812 398.69867188 436.31640625 399.05859375 C434.73172137 399.5180586 433.14708863 399.9777033 431.5625 400.4375 C430.35883789 400.78264648 430.35883789 400.78264648 429.13085938 401.13476562 C425.25946753 401.98705862 425.25946753 401.98705862 422 404 C420.46103804 404.09801202 418.91758325 404.12631844 417.37550354 404.12698364 C416.37573486 404.12980347 415.37596619 404.13262329 414.34590149 404.13552856 C413.23990097 404.13350433 412.13390045 404.1314801 410.99438477 404.12939453 C409.83677643 404.13114685 408.67916809 404.13289917 407.48648071 404.13470459 C403.63810756 404.13912631 399.78977992 404.13618379 395.94140625 404.1328125 C393.27961672 404.13348549 390.6178286 404.13445379 387.95603943 404.13571167 C382.36806744 404.13753334 376.78010866 404.13512739 371.19213867 404.13037109 C364.72617902 404.12493113 358.26025091 404.1266892 351.79429203 404.1321975 C346.25033471 404.13673187 340.7063869 404.1373775 335.16242832 404.13475883 C331.84801593 404.1331975 328.53362167 404.13338924 325.21920967 404.13629532 C321.52445441 404.13882332 317.82976044 404.13497897 314.13500977 404.12939453 C313.03103348 404.13141876 311.92705719 404.13344299 310.78962708 404.13552856 C309.78703857 404.13270874 308.78445007 404.12988892 307.7514801 404.12698364 C306.87707559 404.12660662 306.00267107 404.12622959 305.10176945 404.12584114 C303 404 303 404 301 403 C301.87787536 396.12330964 303.1376518 389.47698421 305.37890625 382.90625 C307.16570037 377.62104375 308.62150879 372.26305408 310.0625 366.875 C310.57384319 364.97646131 311.08555367 363.0780215 311.59765625 361.1796875 C311.95561279 359.8508252 311.95561279 359.8508252 312.32080078 358.49511719 C313.18475336 355.32128709 314.08538801 352.15956869 315 349 C315.66 349 316.32 349 317 349 C317 348.01 317 347.02 317 346 C365.015 345.505 365.015 345.505 414 345 C413.96039936 322.7111696 413.96039936 322.7111696 413.90991211 300.42236328 C413.90539551 296.11499023 413.90539551 296.11499023 413.90455627 294.09957886 C413.90301903 292.68966354 413.89949858 291.27974955 413.89442444 289.86984253 C413.88712869 287.73628448 413.8860932 285.60280689 413.88647461 283.46923828 C413.884254 282.26566681 413.88203339 281.06209534 413.87974548 279.822052 C414 277 414 277 415 275 C350.155 275.495 350.155 275.495 284 276 C282.68 280.95 281.36 285.9 280 291 C279.34 293.31 278.68 295.62 278 298 C277.34 298 276.68 298 276 298 C276 300.31 276 302.62 276 305 C275.34 305 274.68 305 274 305 C273.90332031 306.26714844 273.80664062 307.53429687 273.70703125 308.83984375 C273.09259195 314.34827591 271.46507949 319.33331884 269.6875 324.5625 C267.08756224 332.4469286 264.82730086 340.29771191 262.90625 348.37109375 C261.74397277 353.02521248 260.31832869 357.57325461 258.83203125 362.1328125 C257.97788895 365.0761949 257.44504617 367.97008973 257 371 C256.34 371 255.68 371 255 371 C255.061875 371.804375 255.12375 372.60875 255.1875 373.4375 C255.00128981 376.97549359 254.18900018 379.76586552 252.99609375 383.08203125 C251.39365613 387.77623086 250.07092175 392.55334788 248.71411133 397.32348633 C247.10653308 402.89346692 247.10653308 402.89346692 246 404 C243.07937944 404.10593513 240.18228003 404.14677617 237.26098633 404.14526367 C235.88534012 404.15030159 235.88534012 404.15030159 234.48190308 404.15544128 C231.43193223 404.16498591 228.38201613 404.16689645 225.33203125 404.16796875 C223.21791053 404.17117998 221.10379004 404.17454395 218.9896698 404.17805481 C214.54836512 404.18405563 210.10707993 404.18589384 205.66577148 404.18530273 C199.97724992 404.18520131 194.28885372 404.19882931 188.60036182 404.21607494 C184.22944059 404.22720258 179.85854953 404.22922167 175.48761559 404.22869301 C173.39088193 404.2298729 171.29414749 404.23429521 169.19742775 404.24202538 C166.26019203 404.25183618 163.32322652 404.24894233 160.38598633 404.24291992 C159.52080887 404.24853943 158.65563141 404.25415894 157.76423645 404.25994873 C153.0935543 404.23564657 149.39735953 403.75998052 145 402 C142.71026822 401.28543678 140.41857914 400.57711606 138.125 399.875 C136.39636719 399.34519531 136.39636719 399.34519531 134.6328125 398.8046875 C133.76398438 398.53914063 132.89515625 398.27359375 132 398 C132 397.34 132 396.68 132 396 C130.68 396 129.36 396 128 396 C128 395.34 128 394.68 128 394 C127.01 394 126.02 394 125 394 C125 393.34 125 392.68 125 392 C123.68 391.67 122.36 391.34 121 391 C121 390.34 121 389.68 121 389 C120.34 389 119.68 389 119 389 C119 388.34 119 387.68 119 387 C117.68 386.34 116.36 385.68 115 385 C115 384.34 115 383.68 115 383 C114.01 382.67 113.02 382.34 112 382 C109 377.66666667 109 377.66666667 109 375 C108.34 375 107.68 375 107 375 C102.57838523 363.76474934 98.58366004 352.66978128 95.78320312 340.91577148 C93.84339006 333.00255118 91.36232709 325.25296585 88.90527344 317.48779297 C86.9673825 311.32220519 85.2553937 305.15492623 83.73022461 298.875 C82.37370452 293.53418403 80.66977345 288.29612626 78.98632812 283.05078125 C77.5934139 278.56133841 76.65092711 274.76290562 77 270 C76.34 270 75.68 270 75 270 C73.54815522 265.46298506 72.76490804 261.81938524 73 257 C72.34 257 71.68 257 71 257 C70.82984375 256.12859375 70.6596875 255.2571875 70.484375 254.359375 C69.07428369 247.42892622 67.35967801 240.83541862 65.02734375 234.1640625 C63.88508913 230.64609201 62.98605755 227.09409501 62.125 223.5 C60.60687279 217.17985338 58.83611364 210.96618446 56.9375 204.75 C55.06327791 198.61367506 53.33344574 192.49253453 51.84375 186.25 C50.45718736 180.90916613 48.80732293 175.64733107 47.19799805 170.37011719 C45.49793764 164.76178021 44.00246214 159.1382136 42.640625 153.4375 C42.07493803 151.28513007 41.39673377 149.30895995 40.5625 147.25 C38.74622692 142.69985755 37.7011616 137.95532213 36.55322266 133.20507812 C35.22189715 127.74828718 33.62145108 122.41012349 31.92578125 117.0546875 C31.05334789 114.17602553 30.31807121 111.30130064 29.625 108.375 C28.72631525 104.61458167 27.68061906 100.9426745 26.48046875 97.26953125 C26.20702637 96.43180176 25.93358398 95.59407227 25.65185547 94.73095703 C25.10415721 93.07129431 24.54758286 91.41452685 23.98095703 89.76123047 C22.39587915 84.96199467 21.69628923 81.05509705 22 76 C21.34 76 20.68 76 20 76 C19.85304687 75.28199219 19.70609375 74.56398438 19.5546875 73.82421875 C17.67719511 65.15969926 15.13360256 56.81052026 12.40234375 48.3828125 C8.71112861 36.92186347 8.71112861 36.92186347 9 31 C8.34 31 7.68 31 7 31 C6.74605469 29.94941406 6.49210938 28.89882813 6.23046875 27.81640625 C3.8107831 17.77389079 3.8107831 17.77389079 0.515625 7.9921875 C0 6 0 6 0 0 Z " fill="#02758A" transform="translate(148,14)"/>
<path d="M0 0 C15.1088467 -0.11735274 30.21767227 -0.20524038 45.32687378 -0.25906086 C52.34404839 -0.28472678 59.36093809 -0.3196514 66.37792969 -0.37719727 C73.16014266 -0.43279071 79.94206063 -0.46149101 86.7244873 -0.47438622 C89.30143873 -0.48356625 91.87837554 -0.50149141 94.4552002 -0.52865028 C116.2206934 -0.74875674 135.39012382 1.41106183 152 17 C152 17.66 152 18.32 152 19 C152.66 19 153.32 19 154 19 C162.26640455 27.9552716 169.13364027 41.5163921 169.12025452 53.88482666 C169.12232076 55.35408789 169.12232076 55.35408789 169.12442875 56.85303116 C169.12083064 57.92536877 169.11723253 58.99770638 169.11352539 60.10253906 C169.11364593 61.25283474 169.11376646 62.40313042 169.11389065 63.58828354 C169.11314389 67.31408365 169.10552636 71.03983383 169.09765625 74.765625 C169.0961861 77.06494116 169.09516584 79.36425766 169.09460449 81.66357422 C169.08936009 90.19238791 169.07539891 98.72119445 169.0625 107.25 C169.041875 126.3075 169.02125 145.365 169 165 C97.72 165 26.44 165 -47 165 C-45.87182448 155.97459584 -45.87182448 155.97459584 -44.5625 151.375 C-44.31628906 150.49585938 -44.07007813 149.61671875 -43.81640625 148.7109375 C-43.26574218 146.88241662 -42.68382621 145.06305612 -42.07324219 143.25366211 C-40.97712139 139.93064075 -39.98257946 136.59214697 -39.01171875 133.23046875 C-38.82827408 132.59677368 -38.64482941 131.96307861 -38.45582581 131.31018066 C-37.86530236 129.26959809 -37.27639154 127.22855406 -36.6875 125.1875 C-35.87424249 122.37484233 -35.06019858 119.56241252 -34.24609375 116.75 C-33.94936264 115.7243116 -33.94936264 115.7243116 -33.64663696 114.67790222 C-32.19860335 109.67583603 -30.73066892 104.67998026 -29.25 99.6875 C-27.12466369 92.48783132 -25.10665262 85.26064017 -23.11328125 78.0234375 C-22.09875352 74.3421259 -21.05475766 70.66997872 -20 67 C-19.34 67 -18.68 67 -18 67 C-18.05414063 65.71996094 -18.05414063 65.71996094 -18.109375 64.4140625 C-17.99264523 60.77042607 -17.29241613 57.86308473 -16.25 54.375 C-15.88390625 53.14136719 -15.5178125 51.90773437 -15.140625 50.63671875 C-14.14590283 47.4651902 -13.09115443 44.32673397 -12 41.1875 C-10.08279633 35.58625792 -8.72775447 29.9184935 -7.48242188 24.13745117 C-6.57216826 20.01835824 -5.38618494 16.18378834 -3.83616638 12.26153564 C-2.9188005 9.78038395 -2.15193766 7.2797919 -1.40209961 4.74316406 C-1.00564491 3.4065976 -1.00564491 3.4065976 -0.60118103 2.04302979 C-0.40279129 1.36882996 -0.20440155 0.69463013 0 0 Z M44 58 C43.50886719 59.07378906 43.01773438 60.14757812 42.51171875 61.25390625 C42.23545654 61.8579126 41.95919434 62.46191895 41.67456055 63.08422852 C40.62719441 66.05877868 40.80957996 68.88980608 41 72 C40.34 72 39.68 72 39 72 C39 73.98 39 75.96 39 78 C38.34 78 37.68 78 37 78 C36.74605469 79.05058594 36.49210937 80.10117188 36.23046875 81.18359375 C33.10826058 93.95999823 33.10826058 93.95999823 31.25 99.3125 C29.83948036 102.82459885 29.83948036 102.82459885 30 106 C56.73 106 83.46 106 111 106 C111.87724304 100.74409954 111.87724304 100.74409954 112.12939453 95.57104492 C112.13412277 94.34528999 112.13412277 94.34528999 112.13894653 93.09477234 C112.1369223 92.23205215 112.13489807 91.36933197 112.1328125 90.48046875 C112.13424759 89.13170403 112.13424759 89.13170403 112.13571167 87.75569153 C112.13638947 85.86552866 112.1345632 83.97536342 112.13037109 82.08520508 C112.12498572 79.17979794 112.13034564 76.27454319 112.13671875 73.36914062 C112.13605851 71.53124966 112.13477848 69.69335878 112.1328125 67.85546875 C112.13584885 66.54620674 112.13584885 66.54620674 112.13894653 65.210495 C112.51462226 61.2913615 112.51462226 61.2913615 111 58 C108.91380978 57.90582227 106.82439523 57.88257122 104.73608398 57.88647461 C104.08244873 57.88632858 103.42881348 57.88618256 102.75537109 57.8860321 C100.58557872 57.88673117 98.41587121 57.89452322 96.24609375 57.90234375 C94.74536689 57.90420795 93.24463943 57.90563184 91.74391174 57.90663147 C87.78681774 57.91045648 83.82976022 57.9202866 79.87268066 57.93133545 C75.83765151 57.94154994 71.80261647 57.94612917 67.76757812 57.95117188 C59.84503531 57.96190889 51.92252219 57.9789851 44 58 Z " fill="#F19113" transform="translate(451,14)"/>
<path d="M0 0 C0.33 0.66 0.66 1.32 1 2 C27.73 2 54.46 2 82 2 C82.33 1.34 82.66 0.68 83 0 C83 1.32 83 2.64 83 4 C79.92730298 5.53634851 76.70798882 5.12967825 73.33740234 5.11352539 C72.15190544 5.11374443 72.15190544 5.11374443 70.94245911 5.1139679 C68.32359089 5.11326983 65.70479333 5.10548239 63.0859375 5.09765625 C61.27275634 5.09579169 59.45957467 5.09436797 57.64639282 5.09336853 C52.86896377 5.08954632 48.09156501 5.07971855 43.31414795 5.06866455 C38.44120697 5.05844407 33.5682611 5.05386954 28.6953125 5.04882812 C19.13019501 5.03809603 9.56510002 5.02102314 0 5 C0 3.35 0 1.7 0 0 Z " fill="#F3B460" transform="translate(480,118)"/>
</svg>
