<?xml version="1.0" encoding="UTF-8"?>
<svg version="1.1" xmlns="http://www.w3.org/2000/svg" width="296" height="76">
<path d="M0 0 C97.68 0 195.36 0 296 0 C296 25.08 296 50.16 296 76 C198.32 76 100.64 76 0 76 C0 50.92 0 25.84 0 0 Z " fill="#040404" transform="translate(0,0)"/>
<path d="M0 0 C2.64 0 5.28 0 8 0 C8 20.79 8 41.58 8 63 C5.36 63 2.72 63 0 63 C-0.495 61.515 -0.495 61.515 -1 60 C-1.350625 60.495 -1.70125 60.99 -2.0625 61.5 C-5.01717332 63.78748902 -7.38658914 63.39419028 -11 63 C-13.06885998 59.89671004 -13.25339976 59.20398106 -13.2746582 55.68383789 C-13.28419022 54.81606216 -13.29372223 53.94828644 -13.30354309 53.05421448 C-13.30263168 52.11980026 -13.30172028 51.18538605 -13.30078125 50.22265625 C-13.30506638 49.25976181 -13.3093515 48.29686737 -13.31376648 47.30479431 C-13.31951025 45.26806423 -13.3200097 43.23131364 -13.31567383 41.19458008 C-13.31251564 38.07793169 -13.33596645 34.962234 -13.36132812 31.84570312 C-13.36360128 29.8671887 -13.36430454 27.88867172 -13.36328125 25.91015625 C-13.372491 24.97776627 -13.38170074 24.04537628 -13.39118958 23.08473206 C-13.34476182 16.5930655 -13.34476182 16.5930655 -11.47729492 13.38061523 C-10.9897876 12.92501221 -10.50228027 12.46940918 -10 12 C-3.25 12.75 -3.25 12.75 -1 15 C-0.67 10.05 -0.34 5.1 0 0 Z " fill="#EBEBEB" transform="translate(185,7)"/>
<path d="M0 0 C3.54217682 -0.7461181 6.46584309 -0.85090508 10 0 C13.93999619 3.15677995 16.92097646 7.03090785 20 11 C21.60122676 12.96073787 23.205269 14.91918082 24.8125 16.875 C25.49957031 17.73867188 26.18664062 18.60234375 26.89453125 19.4921875 C29.12769406 22.1520957 31.51287161 24.57797968 34 27 C38.7190255 21.85704314 43.33583006 16.65828552 47.75 11.25 C48.49378906 10.34121094 49.23757812 9.43242187 50.00390625 8.49609375 C51.18962243 7.01336843 52.35295054 5.51151645 53.46484375 3.97265625 C54.6875 2.3125 54.6875 2.3125 57 0 C60.3125 -0.375 60.3125 -0.375 63 0 C59.24834764 5.21062827 55.24421989 10.13352753 51.0625 15 C50.54179932 15.60779297 50.02109863 16.21558594 49.48461914 16.84179688 C46.09663509 20.77822048 42.62986201 24.62377854 39.01171875 28.3515625 C37.81823839 29.95173382 37.81823839 29.95173382 38.08203125 31.92578125 C39.29077448 34.65702659 40.94398313 36.39582944 43 38.5625 C50.17296708 46.30565524 56.77397594 54.47889256 63 63 C60.390625 63.421875 60.390625 63.421875 57 63 C54.532777 61.07277298 52.68952119 58.6936375 50.75 56.25 C49.91335815 55.23957642 49.91335815 55.23957642 49.05981445 54.20874023 C47.91674768 52.82542244 46.78107588 51.43596118 45.65283203 50.04052734 C43.63825074 47.55339729 41.58191534 45.10328717 39.52246094 42.65332031 C37.66967182 40.44542457 35.83417376 38.22336638 34 36 C29.95068215 39.93620841 26.23968834 44.09139814 22.5625 48.375 C22.01529297 49.00921875 21.46808594 49.6434375 20.90429688 50.296875 C20.35966797 50.92851563 19.81503906 51.56015625 19.25390625 52.2109375 C18.71217773 52.83379639 18.17044922 53.45665527 17.61230469 54.09838867 C16.52516788 55.38059772 15.46865766 56.68932924 14.44238281 58.02075195 C10.6531683 62.83900781 10.6531683 62.83900781 7.2265625 63.68359375 C6.36804688 63.60238281 5.50953125 63.52117187 4.625 63.4375 C3.31402344 63.34275391 3.31402344 63.34275391 1.9765625 63.24609375 C1.32429687 63.16488281 0.67203125 63.08367187 0 63 C1.4284189 59.79144096 3.18277045 57.50953093 5.5625 54.9375 C12.47903986 47.30545602 18.90422676 39.29943465 25 31 C24.18917969 30.06800781 23.37835938 29.13601562 22.54296875 28.17578125 C19.62068059 24.81346428 16.70471 21.44573907 13.79248047 18.07470703 C12.6361773 16.73634359 11.47901404 15.39872252 10.32080078 14.06201172 C8.79237447 12.29542548 7.27027019 10.52360591 5.75 8.75 C5.05233521 7.94622925 5.05233521 7.94622925 4.34057617 7.1262207 C2.30595291 4.74065468 1.00335095 3.01005285 0 0 Z " fill="#DA2118" transform="translate(206,7)"/>
<path d="M0 0 C2.31 0 4.62 0 7 0 C7 4.95 7 9.9 7 15 C7.66 15 8.32 15 9 15 C9.33 14.01 9.66 13.02 10 12 C16.25577571 10.55635945 16.25577571 10.55635945 19.20996094 12.31738281 C22.03194562 16.54651098 21.49243477 20.70385603 21.390625 25.671875 C21.38496521 26.70942932 21.37930542 27.74698364 21.37347412 28.815979 C21.35109491 32.12778992 21.30089419 35.43851644 21.25 38.75 C21.22993706 40.99607812 21.21168594 43.24217321 21.1953125 45.48828125 C21.15122518 50.99255709 21.08429741 56.49620107 21 62 C18.36 62 15.72 62 13 62 C12.505 41.21 12.505 41.21 12 20 C10.68 20 9.36 20 8 20 C7.67 33.53 7.34 47.06 7 61 C4.69 61 2.38 61 0 61 C0 40.87 0 20.74 0 0 Z " fill="#F4F4F4" transform="translate(34,8)"/>
<path d="M0 0 C1.546875 0.01546875 1.546875 0.01546875 3.125 0.03125 C6.3731997 0.56084778 7.637095 1.24835959 10 3.5 C10.48101807 5.64506531 10.48101807 5.64506531 10.45410156 8.1550293 C10.45364838 9.56615242 10.45364838 9.56615242 10.45318604 11.00578308 C10.43254089 12.01836685 10.41189575 13.03095062 10.390625 14.07421875 C10.38496521 15.11318802 10.37930542 16.15215729 10.37347412 17.22261047 C10.35106327 20.54470681 10.3008569 23.86572904 10.25 27.1875 C10.22994115 29.43813548 10.21168931 31.68878784 10.1953125 33.93945312 C10.1511832 39.4600026 10.08422421 44.97992457 10 50.5 C7.69 50.5 5.38 50.5 3 50.5 C2.505 49.015 2.505 49.015 2 47.5 C1.649375 47.995 1.29875 48.49 0.9375 49 C-2.01717332 51.28748902 -4.38658914 50.89419028 -8 50.5 C-10.81966797 46.27049805 -10.40549018 42.66324803 -10.4375 37.6875 C-10.47037109 36.79740234 -10.50324219 35.90730469 -10.53710938 34.99023438 C-10.57280565 30.61257282 -10.49593433 27.4921303 -7.67578125 24.00390625 C-4.95260578 21.45565008 -2.14082008 19.49870369 1 17.5 C2.26237731 14.97524538 2.09856404 13.18799534 2.0625 10.375 C2.05347656 9.46492188 2.04445312 8.55484375 2.03515625 7.6171875 C2.02355469 6.91851562 2.01195312 6.21984375 2 5.5 C1.01 5.5 0.02 5.5 -1 5.5 C-1.33 9.79 -1.66 14.08 -2 18.5 C-4.64 18.5 -7.28 18.5 -10 18.5 C-10.10864945 16.43867858 -10.18588321 14.37568679 -10.25 12.3125 C-10.29640625 11.16394531 -10.3428125 10.01539063 -10.390625 8.83203125 C-9.61186732 2.18922826 -6.51169196 -0.19535076 0 0 Z " fill="#F0F0F0" transform="translate(157,19.5)"/>
<path d="M0 0 C4.95 0 9.9 0 15 0 C19 4 19 4 19.50170898 6.57788086 C19.49985596 7.53057861 19.49800293 8.48327637 19.49609375 9.46484375 C19.49673828 10.51220703 19.49738281 11.55957031 19.49804688 12.63867188 C19.47806641 13.72728516 19.45808594 14.81589844 19.4375 15.9375 C19.44458984 17.02224609 19.45167969 18.10699219 19.45898438 19.22460938 C19.41454702 24.78611513 19.34943243 28.36197003 16 33 C14 34 14 34 8 34 C8 43.24 8 52.48 8 62 C5.36 62 2.72 62 0 62 C0 41.54 0 21.08 0 0 Z " fill="#F4F4F4" transform="translate(124,8)"/>
<path d="M0 0 C3 0.375 3 0.375 4.66621399 1.60176086 C6.40305516 3.91085297 6.36319458 5.24928865 6.34057617 8.12182617 C6.34034958 9.08259567 6.34012299 10.04336517 6.33988953 11.0332489 C6.32440567 12.06770645 6.30892181 13.102164 6.29296875 14.16796875 C6.28872391 15.22913406 6.28447906 16.29029938 6.28010559 17.38362122 C6.26329706 20.77683765 6.22564019 24.16946272 6.1875 27.5625 C6.172456 29.86131956 6.15876711 32.16014841 6.14648438 34.45898438 C6.11338645 40.09785842 6.0631653 45.73638697 6 51.375 C3.36 51.375 0.72 51.375 -2 51.375 C-2 37.185 -2 22.995 -2 8.375 C-3.65 8.375 -5.3 8.375 -7 8.375 C-7 22.565 -7 36.755 -7 51.375 C-9.64 51.375 -12.28 51.375 -15 51.375 C-15 34.875 -15 18.375 -15 1.375 C-12.36 1.375 -9.72 1.375 -7 1.375 C-6.67 2.035 -6.34 2.695 -6 3.375 C-5.62875 2.88 -5.2575 2.385 -4.875 1.875 C-3 0.375 -3 0.375 0 0 Z " fill="#ECECEC" transform="translate(88,18.625)"/>
<path d="M0 0 C7.92 0 15.84 0 24 0 C24 2.31 24 4.62 24 7 C21.36 7 18.72 7 16 7 C16 25.15 16 43.3 16 62 C13.36 62 10.72 62 8 62 C8 44.18 8 26.36 8 8 C5.36 8 2.72 8 0 8 C0 5.36 0 2.72 0 0 Z " fill="#FAFAFA" transform="translate(6,8)"/>
<path d="M0 0 C2.31 0 4.62 0 7 0 C7 20.46 7 40.92 7 62 C4.69 62 2.38 62 0 62 C0 41.54 0 21.08 0 0 Z " fill="#FBFBFB" transform="translate(99,8)"/>
<path d="M0 0 C2.64 0 5.28 0 8 0 C8 16.5 8 33 8 50 C5.36 50 2.72 50 0 50 C0 33.5 0 17 0 0 Z " fill="#E4E4E4" transform="translate(60,20)"/>
<path d="M0 0 C0 20.79 0 41.58 0 63 C-1.65 63 -3.3 63 -5 63 C-5.33 44.85 -5.66 26.7 -6 8 C-7.65 9.98 -9.3 11.96 -11 14 C-14.3125 14.375 -14.3125 14.375 -17 14 C-15.43108848 10.42822272 -13.28717253 7.70140479 -10.75 4.75 C-10.00234375 3.85796875 -9.2546875 2.9659375 -8.484375 2.046875 C-6 0 -6 0 0 0 Z " fill="#E2E2E2" transform="translate(289,7)"/>
<path d="M0 0 C2.97 0 5.94 0 9 0 C8.69964844 1.14855469 8.39929688 2.29710938 8.08984375 3.48046875 C4.59769668 17.45963471 5.31416349 28.81051583 8.37890625 42.78515625 C9 46 9 46 9 50 C6.36 50 3.72 50 1 50 C0.31648995 46.56563469 -0.34356434 43.12713415 -1 39.6875 C-1.19078125 38.73037109 -1.3815625 37.77324219 -1.578125 36.78710938 C-3.45098501 26.85426254 -3.47168778 17.71534629 -1.5 7.8125 C-1.35691406 7.05130859 -1.21382813 6.29011719 -1.06640625 5.50585938 C-0.71980589 3.66887745 -0.36124116 1.834159 0 0 Z " fill="#EFEFEF" transform="translate(111,20)"/>
<path d="M0 0 C1.65 0 3.3 0 5 0 C5 12.21 5 24.42 5 37 C3.35 37 1.7 37 0 37 C0 24.79 0 12.58 0 0 Z " fill="#030303" transform="translate(180,27)"/>
<path d="M0 0 C0.90492188 0.09539063 1.80984375 0.19078125 2.7421875 0.2890625 C-5.13797289 11.23372971 -14.24714865 21.27132445 -23.2578125 31.2890625 C-24.2478125 30.6290625 -25.2378125 29.9690625 -26.2578125 29.2890625 C-24.55764369 25.14553732 -21.6176961 22.04354482 -18.6953125 18.7265625 C-14.05231986 13.43588944 -14.05231986 13.43588944 -9.67578125 7.92578125 C-8.91910156 6.93191406 -8.16242188 5.93804687 -7.3828125 4.9140625 C-6.39667969 3.57214844 -6.39667969 3.57214844 -5.390625 2.203125 C-3.2578125 0.2890625 -3.2578125 0.2890625 0 0 Z " fill="#EAEAEA" transform="translate(266.2578125,6.7109375)"/>
<path d="M0 0 C4.95375246 3.68355952 8.56809668 7.98671345 12.41015625 12.80078125 C15.8815094 17.13413906 19.54202301 21.30718009 23.18994141 25.49194336 C27 29.8936452 27 29.8936452 27 31 C24.390625 31.421875 24.390625 31.421875 21 31 C18.532777 29.07277298 16.68952119 26.6936375 14.75 24.25 C14.19223877 23.57638428 13.63447754 22.90276855 13.05981445 22.20874023 C11.91674768 20.82542244 10.78107588 19.43596118 9.65283203 18.04052734 C7.63825074 15.55339729 5.58191534 13.10328717 3.52246094 10.65332031 C1.66967182 8.44542457 -0.16582624 6.22336638 -2 4 C-1.34 2.68 -0.68 1.36 0 0 Z " fill="#ECECEC" transform="translate(242,39)"/>
<path d="M0 0 C0 6.6 0 13.2 0 20 C-1.65 20.33 -3.3 20.66 -5 21 C-5.10812003 18.24894578 -5.18734945 15.50214913 -5.25 12.75 C-5.28351563 11.97269531 -5.31703125 11.19539063 -5.3515625 10.39453125 C-5.45082164 4.58787142 -5.45082164 4.58787142 -3.046875 1.453125 C-1 0 -1 0 0 0 Z " fill="#080808" transform="translate(160,43)"/>
<path d="M0 0 C3.0625 0.3125 3.0625 0.3125 5 1.5 C6.0625 3.3125 6.0625 3.3125 5.875 5.875 C5.0625 8.3125 5.0625 8.3125 3.0625 10.3125 C0.0625 10.5625 0.0625 10.5625 -2.9375 10.3125 C-4.9375 8.3125 -4.9375 8.3125 -5.1875 5.3125 C-4.84687504 1.2250005 -4.07761768 0.43378911 0 0 Z " fill="#DB2118" transform="translate(63.9375,4.6875)"/>
<path d="M0 0 C1.32 0.33 2.64 0.66 4 1 C4 7.6 4 14.2 4 21 C2.68 21.33 1.36 21.66 0 22 C0 14.74 0 7.48 0 0 Z " fill="#0B0B0B" transform="translate(132,14)"/>
<path d="M0 0 C2.0625 0.4375 2.0625 0.4375 4 1 C4.62608696 9.95652174 4.62608696 9.95652174 2.125 14.125 C0 16 0 16 -2 16 C-1.85975781 13.52039864 -1.7130815 11.04147598 -1.5625 8.5625 C-1.52318359 7.85544922 -1.48386719 7.14839844 -1.44335938 6.41992188 C-1.11328125 1.11328125 -1.11328125 1.11328125 0 0 Z " fill="#101010" transform="translate(156,24)"/>
<path d="M0 0 C2.475 0.495 2.475 0.495 5 1 C5 2.32 5 3.64 5 5 C6.98 5 8.96 5 11 5 C11 5.33 11 5.66 11 6 C8.69 6 6.38 6 4 6 C3.67 5.01 3.34 4.02 3 3 C2.01 3.495 2.01 3.495 1 4 C0.67 2.68 0.34 1.36 0 0 Z " fill="#BFBFBF" transform="translate(156,64)"/>
</svg>
