<?xml version="1.0" encoding="UTF-8"?>
<svg version="1.1" xmlns="http://www.w3.org/2000/svg" width="1200" height="600">
<path d="M0 0 C19.95651751 0.06197676 39.93364512 5.45327007 59 11 C59.94601074 11.27038086 60.89202148 11.54076172 61.86669922 11.81933594 C85.00492792 18.44427947 107.58936706 26.2392871 130 35 C130.87350098 35.34063477 131.74700195 35.68126953 132.64697266 36.03222656 C141.61384382 39.53978279 150.50161005 43.12034512 159.20703125 47.2421875 C164.54776189 49.74816437 169.97055084 52.07325207 175.375 54.4375 C186.9659824 59.5209201 198.47586755 64.67746677 209.75 70.4375 C230.35778095 80.78790917 251.45729664 87.11055519 273.828125 92.37109375 C292.64495225 96.80934222 311.21874111 101.2940497 329 109 C329.77730469 109.32484375 330.55460938 109.6496875 331.35546875 109.984375 C352.41228088 118.99179182 371.16684134 130.42824083 388 146 C386.66705377 149.99883868 384.14807925 151.0372533 380.6875 153.0625 C380.10548828 153.41376953 379.52347656 153.76503906 378.92382812 154.12695312 C377.29372772 155.10353649 375.64727177 156.05266788 374 157 C373.01580078 157.58007812 373.01580078 157.58007812 372.01171875 158.171875 C369.10431085 159.36871087 366.23215554 159.74314335 363.125 160.1875 C361.93132813 160.36667969 360.73765625 160.54585937 359.5078125 160.73046875 C356.08231543 160.99367509 353.35450533 160.64074821 350 160 C347.27788331 160.23466523 344.68814967 160.55939269 342 161 C340.97390625 161.15855469 339.9478125 161.31710938 338.890625 161.48046875 C333.28056737 162.18839216 333.28056737 162.18839216 328 164 C326 164 324 164 322 164 C321.01 164.33 320.02 164.66 319 165 C316.7852407 165.1517898 314.56658723 165.24899531 312.34765625 165.31640625 C311.69228378 165.33718735 311.03691132 165.35796844 310.36167908 165.37937927 C308.97059459 165.42260614 307.5794409 165.46365268 306.18823242 165.50268555 C304.10122185 165.56141043 302.01450646 165.62674709 299.92773438 165.69335938 C292.77051618 165.91332873 285.62451697 166.04142751 278.46313477 165.9543457 C268.50578871 166.13890549 260.38676998 171.34199567 253.5625 178.3125 C252.83933594 179.07433594 252.11617187 179.83617187 251.37109375 180.62109375 C247.9419881 184.06149794 244.18169077 187.03506631 240.3828125 190.0546875 C238.04060211 191.8883874 238.04060211 191.8883874 236.3046875 193.7578125 C235 195 235 195 233 195 C233 195.66 233 196.32 233 197 C231.02866014 198.37535339 229.02318078 199.70211044 227 201 C226.0925 201.7425 225.185 202.485 224.25 203.25 C222 205 222 205 220 205 C220 205.66 220 206.32 220 207 C218.56298828 208.11328125 218.56298828 208.11328125 216.5703125 209.3125 C215.85746094 209.74820313 215.14460938 210.18390625 214.41015625 210.6328125 C213.27900391 211.30957031 213.27900391 211.30957031 212.125 212 C210.64698995 212.89344304 209.17036377 213.78918049 207.6953125 214.6875 C207.03547363 215.08324219 206.37563477 215.47898437 205.69580078 215.88671875 C203.84499756 217.01963564 203.84499756 217.01963564 202 219 C201.01 219 200.02 219 199 219 C199 219.66 199 220.32 199 221 C133.22514812 257 133.22514812 257 118 257 C117.67 257.66 117.34 258.32 117 259 C115.21484375 259.52734375 115.21484375 259.52734375 112.9375 259.9375 C109.89625681 260.54861323 107.11971353 261.2626919 104.25 262.4375 C98.6844781 264.63704758 92.83290911 265.7354306 87 267 C86.36852051 267.14671143 85.73704102 267.29342285 85.08642578 267.44458008 C78.02005352 269.07231967 70.89276783 270.32043975 63.75 271.5625 C62.51636719 271.78357422 61.28273438 272.00464844 60.01171875 272.23242188 C52.00955618 273.62501694 44.10748399 274.54016331 36 275 C34.39753418 275.09849243 34.39753418 275.09849243 32.76269531 275.19897461 C4.20556271 276.83439574 -24.82975524 277.10214686 -50 262 C-50 261.34 -50 260.68 -50 260 C-50.66 260 -51.32 260 -52 260 C-53.1875 257.8125 -53.1875 257.8125 -54 255 C-52.65742155 251.0681631 -50.54813411 249.5466699 -47 247.6875 C-44.31524189 246.40105341 -43.04698723 246 -40 246 C-40.04382813 245.42636719 -40.08765625 244.85273438 -40.1328125 244.26171875 C-40.09232484 230.92103405 -30.66414699 218.07913696 -23.53125 207.3125 C-22.01136611 205.01716514 -20.59882699 202.67565218 -19.1875 200.3125 C-18.465625 199.219375 -17.74375 198.12625 -17 197 C-16.34 197 -15.68 197 -15 197 C-14.67 195.68 -14.34 194.36 -14 193 C-17.0745356 193.7763932 -17.0745356 193.7763932 -19 196 C-34.54613693 203.95751416 -50.14415995 209.57108107 -67.14331055 213.50683594 C-69.07381258 213.95248338 -69.07381258 213.95248338 -71 215 C-73.93099594 215.27621951 -76.85974952 215.45035305 -79.79882812 215.61425781 C-82.98390851 215.79715459 -86.12677836 216.01502113 -89.296875 216.390625 C-113.69440702 219.12790908 -143.58403458 212.38862341 -163.25 197.3125 C-164.51135746 196.22132569 -165.76246712 195.11812181 -167 194 C-167.94359375 193.26523437 -167.94359375 193.26523437 -168.90625 192.515625 C-173.34628766 189.01627329 -176.50783482 185.09917668 -179 180 C-179 179.34 -179 178.68 -179 178 C-179.66 177.67 -180.32 177.34 -181 177 C-183.52590164 171.35127966 -184.59875949 166.34163517 -184.875 160.1875 C-184.91181885 159.39778809 -184.9486377 158.60807617 -184.98657227 157.79443359 C-185.47525895 141.61641942 -177.10353637 128.10667228 -167 116 C-164.39020108 113.28343658 -161.77079273 110.70673744 -158.8125 108.375 C-155.88119654 106.12277665 -155.88119654 106.12277665 -154 103 C-151.59765625 102.60546875 -151.59765625 102.60546875 -149 103 C-142.83213931 107.47522533 -139.54529378 114.73243654 -138 122 C-137.71095726 126.3593331 -137.75046457 130.6400616 -138 135 C-138.66 135 -139.32 135 -140 135 C-140.144375 136.2375 -140.28875 137.475 -140.4375 138.75 C-140.70666537 140.94177515 -140.99705919 142.98889029 -141.5625 145.125 C-142.17735477 147.76009188 -142.0612215 150.30625417 -142 153 C-141.75765625 152.41992188 -141.5153125 151.83984375 -141.265625 151.2421875 C-140.93046875 150.46101562 -140.5953125 149.67984375 -140.25 148.875 C-139.92515625 148.10929688 -139.6003125 147.34359375 -139.265625 146.5546875 C-126.38627243 120.55747583 -96.68422223 106.07165084 -71.89453125 93.9375 C-70.25255772 93.12497701 -68.6248379 92.28376974 -67 91.4375 C-39.57376033 77.72438016 -7.99755378 73.81120914 22.31079102 73.81469727 C24.43200631 73.81250568 26.55270364 73.79424398 28.67382812 73.77539062 C61.55904227 73.63862603 88.10613981 86.26728611 115 104 C115.69222656 104.45246094 116.38445312 104.90492188 117.09765625 105.37109375 C122.04895167 108.63802325 126.92777057 112.00986269 131.8125 115.375 C156.65905693 132.48175474 179.54132551 147.34933266 211.14306641 142.68359375 C217.72354495 141.29574775 223.52267048 139.09918084 228 134 C229.23684105 131.56900326 229.23684105 131.56900326 229 129 C226.04342409 122.2655771 219.51428278 118.41547501 212.90625 115.75390625 C211.7821875 115.36074219 210.658125 114.96757812 209.5 114.5625 C208.3965625 114.17191406 207.293125 113.78132813 206.15625 113.37890625 C195.81880926 109.88645768 185.31841159 106.91765637 174.80859375 103.99609375 C173.48825675 103.6279595 172.16794999 103.25971674 170.84767151 102.89137268 C168.10424477 102.12640724 165.36048076 101.3626676 162.61645508 100.59985352 C159.1344096 99.63178133 155.65320962 98.66070794 152.17225552 97.68871975 C149.45364415 96.92994701 146.73459988 96.17273507 144.01542854 95.41597176 C142.11889429 94.88788435 140.22270278 94.35856653 138.32652283 93.82920837 C131.65515494 91.97671738 124.9828359 90.24119354 118.22840881 88.71546936 C117.49303391 88.47936447 116.757659 88.24325958 116 88 C115.67 87.34 115.34 86.68 115 86 C113.19024123 85.79672999 111.38001616 85.59721527 109.56835938 85.41162109 C104.13572668 84.54095391 98.95535275 82.55078771 93.75 80.8125 C91.23232462 79.98529177 88.71409186 79.1597781 86.1953125 78.3359375 C84.96586914 77.93342773 83.73642578 77.53091797 82.46972656 77.11621094 C77.87822548 75.63912517 73.25728622 74.27978595 68.625 72.9375 C60.29791757 70.51125442 52.1778124 67.60783295 44.06689453 64.53881836 C43.18759277 64.20889893 42.30829102 63.87897949 41.40234375 63.5390625 C40.62366943 63.24209473 39.84499512 62.94512695 39.04272461 62.63916016 C36.87954472 61.8506904 36.87954472 61.8506904 34 62 C34 61.34 34 60.68 34 60 C32.88753906 59.75636719 31.77507812 59.51273438 30.62890625 59.26171875 C25.49532726 57.97465797 20.77196311 55.93904054 15.9375 53.8125 C15.02516602 53.41538818 14.11283203 53.01827637 13.17285156 52.60913086 C10.44417473 51.41575318 7.7210342 50.21069151 5 49 C4.20287598 48.64615234 3.40575195 48.29230469 2.58447266 47.92773438 C-9.80175481 42.39649037 -9.80175481 42.39649037 -11 40 C-12.98636298 39.29373761 -14.98848259 38.63106429 -17 38 C-18.34721283 37.36184656 -19.68747118 36.70674629 -21 36 C-21 35.34 -21 34.68 -21 34 C-21.99 34 -22.98 34 -24 34 C-24 33.34 -24 32.68 -24 32 C-24.721875 31.731875 -25.44375 31.46375 -26.1875 31.1875 C-28.99766383 30.00098638 -31.48416557 28.72514361 -34 27 C-34 26.34 -34 25.68 -34 25 C-34.66 25 -35.32 25 -36 25 C-36 23.35 -36 21.7 -36 20 C-30.24617235 17.38847211 -24.91873458 17.61641348 -18.6875 17.625 C-17.46144043 17.62661133 -16.23538086 17.62822266 -14.97216797 17.62988281 C7.21747367 17.91511828 29.28355924 21.67511561 51 26 C49.98421875 25.57460937 48.9684375 25.14921875 47.921875 24.7109375 C44.28985898 23.15306076 40.77297625 21.41780347 37.25 19.625 C31.86436584 16.89386168 26.44328471 14.24598637 20.98828125 11.65625 C20.37820221 11.36583832 19.76812317 11.07542664 19.13955688 10.7762146 C15.42391957 9.00741327 15.42391957 9.00741327 11.70251465 7.25079346 C9.94626714 6.42519146 8.19375426 5.59165926 6.44140625 4.7578125 C5.41732666 4.2745752 4.39324707 3.79133789 3.33813477 3.29345703 C1 2 1 2 0 0 Z M29 99 C26.9383158 99.10153301 24.87557163 99.18227901 22.8125 99.25 C6.33407069 100.26978492 -10.28943089 104.00025873 -26 109 C-27.63388672 109.47566406 -27.63388672 109.47566406 -29.30078125 109.9609375 C-39.90327255 113.07565292 -49.78776946 117.319537 -59.6875 122.1875 C-60.39559814 122.53264648 -61.10369629 122.87779297 -61.83325195 123.23339844 C-65.56480555 124.90514626 -65.56480555 124.90514626 -68 128 C-63.01139322 127.44922742 -58.88866868 126.32904601 -54.25 124.4375 C-35.16257252 116.98835419 -15.12953954 111.72695435 5 108 C5.7002832 107.86867676 6.40056641 107.73735352 7.12207031 107.60205078 C16.12578269 105.99311671 25.12608657 105.78336511 34.25 105.6875 C35.86612183 105.66079224 35.86612183 105.66079224 37.51489258 105.63354492 C47.60281067 105.64358726 59.26687023 106.8059586 67 114 C70.48473112 118.70240704 71.79316451 123.15041171 71 129 C67.28778857 144.04551918 56.04787196 156.94630363 47.18579102 169.32104492 C44.59905076 172.79721865 44.59905076 172.79721865 44 177 C43.34 177 42.68 177 42 177 C40.67659202 179.36947306 39.36628393 181.74475856 38.0625 184.125 C37.68931641 184.79015625 37.31613281 185.4553125 36.93164062 186.140625 C34.77499602 190.10418806 33.44819092 193.43272113 33 198 C40.73701048 200.01835056 46.16106083 197.20402707 52.8984375 193.3359375 C55.63534888 191.66069955 58.34910997 189.95376826 61.0546875 188.22851562 C64.84208861 185.83667296 68.67483387 183.51826718 72.5 181.1875 C73.26570312 180.71948975 74.03140625 180.25147949 74.8203125 179.76928711 C77.76221318 177.97120625 80.70521816 176.17635043 83.6640625 174.40625 C85.38849046 173.36813283 87.1002466 172.30889802 88.8046875 171.23828125 C118.93504756 152.33972208 118.93504756 152.33972208 132.3125 154.5625 C139.44292799 156.4608607 145.16739919 159.2887445 150 165 C150.33 165.99 150.66 166.98 151 168 C143.9689444 172.40419063 136.92925664 176.6529306 129.61328125 180.5703125 C127.0313798 181.98283258 124.51465281 183.4714079 122 185 C118.69221849 187.00889997 115.35497411 188.92846489 111.953125 190.7734375 C110.99212891 191.29518555 110.03113281 191.81693359 109.04101562 192.35449219 C108.03748047 192.89750977 107.03394531 193.44052734 106 194 C105.00162109 194.54043945 104.00324219 195.08087891 102.97460938 195.63769531 C98.8537441 197.8668646 94.73221582 200.09479892 90.609375 202.3203125 C86.57449342 204.50244234 82.54765816 206.68401935 78.57421875 208.9765625 C73.17455269 212.09106781 67.59884163 214.88885538 62.0625 217.75 C61.16401337 218.21487823 61.16401337 218.21487823 60.24737549 218.68914795 C33.79469375 232.37370268 33.79469375 232.37370268 23 237 C28.11988299 242.11988299 38.66266187 241.2884308 45.50073242 241.37988281 C46.63486572 241.37827148 47.76899902 241.37666016 48.9375 241.375 C50.7460144 241.37258301 50.7460144 241.37258301 52.59106445 241.37011719 C78.00989521 241.03416374 105.66028882 236.479054 129 226 C130.99263591 225.31163487 132.99041337 224.63718601 135 224 C135 223.67 135 223.34 135 223 C134.17274414 223.00523682 133.34548828 223.01047363 132.49316406 223.01586914 C128.74545043 223.03665469 124.99774894 223.04966524 121.25 223.0625 C119.94804688 223.07087891 118.64609375 223.07925781 117.3046875 223.08789062 C116.05429687 223.09111328 114.80390625 223.09433594 113.515625 223.09765625 C111.78747559 223.10551147 111.78747559 223.10551147 110.02441406 223.11352539 C107.43924451 223.01648762 105.46512911 222.67683728 103 222 C101.25464758 221.79140785 99.50517811 221.61588223 97.75390625 221.46484375 C96.75166016 221.37783203 95.74941406 221.29082031 94.71679688 221.20117188 C93.67587891 221.11416016 92.63496094 221.02714844 91.5625 220.9375 C90.52544922 220.84662109 89.48839844 220.75574219 88.41992188 220.66210938 C83.92941167 220.27852694 79.50976763 219.94759042 75 220 C77.79155986 216.97358306 80.40134619 215.04694664 84.0703125 213.1953125 C85.05 212.69386719 86.0296875 212.19242187 87.0390625 211.67578125 C88.56660156 210.90814453 88.56660156 210.90814453 90.125 210.125 C96.83542259 206.72632742 103.39638483 203.23150907 109.81591797 199.30810547 C112.47528154 197.71534111 115.20320663 196.3348332 118 195 C121.78055332 193.14830041 125.4149991 191.2061544 129 189 C132.34998376 186.94576468 135.71932192 185.09998843 139.25 183.375 C145.42036263 180.34635342 151.46120896 177.09487829 157.5 173.8125 C158.4684082 173.28897949 159.43681641 172.76545898 160.43457031 172.22607422 C161.35334961 171.72479004 162.27212891 171.22350586 163.21875 170.70703125 C164.04310547 170.2581958 164.86746094 169.80936035 165.71679688 169.34692383 C167.94384598 168.03312679 169.96499243 166.59196703 172 165 C169.87438613 157.44226179 162.87409486 150.80825333 156.23046875 146.98046875 C154.18369049 145.9025796 152.11515964 144.9362182 150 144 C149.34386719 143.69707031 148.68773437 143.39414063 148.01171875 143.08203125 C138.36391655 139.2120089 128.07827043 139.81527752 118.5 143.5 C115.96384962 144.59771712 113.47765921 145.77651295 111 147 C109.82050781 147.58007812 108.64101563 148.16015625 107.42578125 148.7578125 C95.61365558 154.77924064 84.02817914 161.64788058 73 169 C73 169.66 73 170.32 73 171 C72.30519531 171.2475 71.61039063 171.495 70.89453125 171.75 C67.55975671 173.19011856 64.71245485 174.99075038 61.6875 177 C60.61886719 177.70125 59.55023437 178.4025 58.44921875 179.125 C57.64097656 179.74375 56.83273437 180.3625 56 181 C56 181.66 56 182.32 56 183 C55.34 183 54.68 183 54 183 C54 183.66 54 184.32 54 185 C50.535 185.495 50.535 185.495 47 186 C48.07826365 184.72486237 49.16285519 183.45507431 50.25 182.1875 C51.15492188 181.12595703 51.15492188 181.12595703 52.078125 180.04296875 C54 178 54 178 56.234375 176.36328125 C56.81703125 175.91339844 57.3996875 175.46351563 58 175 C58 174.34 58 173.68 58 173 C58.56203125 172.75636719 59.1240625 172.51273437 59.703125 172.26171875 C62.44019785 170.75819064 64.45795941 168.93300252 66.75 166.8125 C69.79723806 164.01474342 72.85377828 161.24829903 76 158.5625 C80.88651124 154.29681601 85.6803532 149.84189918 90 145 C90 144.34 90 143.68 90 143 C90.66 143 91.32 143 92 143 C92 142.34 92 141.68 92 141 C92.66 141 93.32 141 94 141 C99.61351728 134.48187618 106.78220093 125.66277582 107.125 116.75 C104.44795813 110.20611986 100.39641554 107.05462677 94.12109375 104.1640625 C78.45073938 98.31954986 62.40814527 97.94601867 45.875 97.875 C44.78316406 97.87016602 43.69132812 97.86533203 42.56640625 97.86035156 C41.53128906 97.86260742 40.49617188 97.86486328 39.4296875 97.8671875 C38.50397949 97.86831543 37.57827148 97.86944336 36.62451172 97.87060547 C33.987972 98.00059301 31.57713708 98.44858251 29 99 Z " fill="#000000" transform="translate(491,64)"/>
<path d="M0 0 C0 10.56 0 21.12 0 32 C1.65 31.34 3.3 30.68 5 30 C11.21712945 28.70255246 17.36288015 28.81607525 23.6875 28.8125 C24.80833984 28.80025391 25.92917969 28.78800781 27.08398438 28.77539062 C44.69336775 28.74473006 60.01228153 33.20297767 73.234375 45.09765625 C76.68273286 48.81303297 79 52.89293991 79 58 C79.66 58.33 80.32 58.66 81 59 C80.74852839 67.13510667 80.11541695 73.88900744 76 81 C75.66226563 81.61359375 75.32453125 82.2271875 74.9765625 82.859375 C67.83436413 94.30715395 53.67090172 98.80179665 41.25 101.8125 C27.18840891 104.35586471 10.80528785 105.38605877 -2.546875 99.6796875 C-5.72487786 98.79915804 -7.16080464 99.42156622 -10 101 C-10.33 101.66 -10.66 102.32 -11 103 C-16.94 103 -22.88 103 -29 103 C-29 70.33 -29 37.66 -29 4 C-7.66666667 0 -7.66666667 0 0 0 Z M0 48 C-0.2667616 50.76628915 -0.34804189 53.30619631 -0.29296875 56.0703125 C-0.28872391 56.86654022 -0.28447906 57.66276794 -0.28010559 58.48312378 C-0.26328834 61.03075729 -0.22563179 63.57760489 -0.1875 66.125 C-0.17245705 67.85024901 -0.15876796 69.57551039 -0.14648438 71.30078125 C-0.11337501 75.53415782 -0.06157285 79.76694559 0 84 C3.93982686 86.18274055 6.82469229 87.37854145 11.3359375 87.36328125 C12.31820312 87.36263672 13.30046875 87.36199219 14.3125 87.36132812 C15.323125 87.34521484 16.33375 87.32910156 17.375 87.3125 C18.37789062 87.31572266 19.38078125 87.31894531 20.4140625 87.32226562 C28.86376086 87.26143664 38.31211633 86.62201177 44.66796875 80.35546875 C50.07363705 74.25643682 50.3567064 69.48436199 50.2734375 61.390625 C49.79664085 55.47834658 47.29143387 53.20720992 43.125 49.3125 C32.28714764 42.1335807 11.10645237 40.59569842 0 48 Z " fill="#000000" transform="translate(624,354)"/>
<path d="M0 0 C1.24265625 0.00491455 2.4853125 0.0098291 3.765625 0.01489258 C12.30233701 0.12417953 20.10254259 0.57469042 28.25 3.3125 C29.29800781 3.66441406 30.34601563 4.01632812 31.42578125 4.37890625 C39.88972119 7.57264697 49.56717787 13.01872188 54.296875 21.1015625 C56.33370991 26.41996477 57.15610371 31.64491016 56.25 37.3125 C55.26 39.2925 54.27 41.2725 53.25 43.3125 C26.52 43.3125 -0.21 43.3125 -27.75 43.3125 C-27.09 45.6225 -26.43 47.9325 -25.75 50.3125 C-25.09 50.3125 -24.43 50.3125 -23.75 50.3125 C-23.42 50.9725 -23.09 51.6325 -22.75 52.3125 C-20.81255475 53.41021083 -20.81255475 53.41021083 -18.5 54.375 C-17.73171875 54.71660156 -16.9634375 55.05820312 -16.171875 55.41015625 C-9.46199995 57.91012583 -2.56352135 57.53228173 4.5 57.5625 C6.28470703 57.5934375 6.28470703 57.5934375 8.10546875 57.625 C14.32447475 57.65248732 19.52147808 57.31375148 25.33105469 55.03808594 C27.91671957 54.06040196 30.51697798 53.66288744 33.25 53.3125 C34.73448016 55.07888144 36.21241965 56.85076138 37.6875 58.625 C38.51121094 59.61113281 39.33492187 60.59726562 40.18359375 61.61328125 C42.25 64.3125 42.25 64.3125 43.25 67.3125 C21.63794919 76.50812421 -6.26306193 78.37982339 -28.75 71.3125 C-29.65363281 71.04050781 -30.55726563 70.76851563 -31.48828125 70.48828125 C-38.31983078 68.19727602 -44.30803155 65.10520974 -49.75 60.3125 C-49.75 59.6525 -49.75 58.9925 -49.75 58.3125 C-50.74 57.9825 -51.73 57.6525 -52.75 57.3125 C-54.1015625 55.1328125 -54.1015625 55.1328125 -55.375 52.4375 C-55.80039062 51.55320312 -56.22578125 50.66890625 -56.6640625 49.7578125 C-59.86142544 42.55799524 -59.89181022 34.54999966 -57.25 27.125 C-51.27440906 14.10824071 -39.99012464 8.3280121 -27.21875 3.390625 C-18.12425062 0.56395627 -9.50340541 -0.04416319 0 0 Z M-22.8125 21.75 C-25.0606442 24.62856605 -25.0606442 24.62856605 -27.75 29.3125 C-9.6 29.3125 8.55 29.3125 27.25 29.3125 C25.35639955 23.63169865 24.24899067 21.16040984 19.25 18.3125 C6.5164173 12.85213006 -11.69454961 12.90101908 -22.8125 21.75 Z " fill="#000000" transform="translate(529.75,382.6875)"/>
<path d="M0 0 C1.2274292 -0.00161133 2.4548584 -0.00322266 3.71948242 -0.00488281 C21.09990514 0.20654356 36.30623833 3.74206588 49.0703125 16.21484375 C54.35323661 22.49329376 57.17638627 30.57386856 57.1953125 38.75 C56.17160824 47.60817563 53.30451344 54.73514413 46.55859375 60.69921875 C41.86079949 64.2593159 37.77053636 66.51398788 32.1875 68.375 C31.8575 69.035 31.5275 69.695 31.1875 70.375 C30.5275 70.045 29.8675 69.715 29.1875 69.375 C28.8575 70.035 28.5275 70.695 28.1875 71.375 C8.8579818 76.91223386 -17.5959091 77.69582234 -35.8125 68.375 C-38.93998122 66.53201999 -41.89387466 64.53175769 -44.8125 62.375 C-45.39128906 61.95089844 -45.97007812 61.52679688 -46.56640625 61.08984375 C-54.58638046 54.83868591 -57.03175441 46.62096475 -58.25 36.875 C-57.07796551 27.49872404 -53.17825933 18.66561646 -45.70703125 12.69140625 C-43.46021211 11.14067566 -41.17675419 9.73883575 -38.8125 8.375 C-38.22082031 8.00632812 -37.62914062 7.63765625 -37.01953125 7.2578125 C-25.49754887 0.69562386 -12.93377675 0.01631919 0 0 Z M-21.8125 22.375 C-21.8125 23.035 -21.8125 23.695 -21.8125 24.375 C-22.8025 24.705 -23.7925 25.035 -24.8125 25.375 C-28.31940597 32.01307202 -28.51683678 38.08848151 -26.8125 45.375 C-24.44033293 50.88006358 -21.02601662 55.37058342 -15.40625 57.7265625 C-5.07970856 60.30819786 6.99791593 60.76175355 16.5 55.5625 C17.386875 54.840625 18.27375 54.11875 19.1875 53.375 C20.095 52.694375 21.0025 52.01375 21.9375 51.3125 C26.1513924 45.81102937 26.45936384 38.96318344 26.1875 32.1875 C25.41818444 26.75042712 23.27079162 23.02891457 19.1875 19.375 C8.81673604 12.16232723 -13.27279505 12.17554048 -21.8125 22.375 Z " fill="#000000" transform="translate(327.8125,382.625)"/>
<path d="M0 0 C1.26779297 -0.01224609 2.53558594 -0.02449219 3.84179688 -0.03710938 C19.39652122 -0.06127518 34.3536715 3.11009284 46.6875 13.1875 C50.83604597 17.8871993 54.36790463 22.98540177 55.6875 29.1875 C55.83058594 29.82816406 55.97367188 30.46882813 56.12109375 31.12890625 C57.47915403 38.95525362 55.65987962 46.58280622 51.875 53.5 C51.153125 54.386875 50.43125 55.27375 49.6875 56.1875 C49.30207031 56.74824219 48.91664063 57.30898438 48.51953125 57.88671875 C40.63401319 68.54719917 25.10235318 71.98465938 12.6875 74.1875 C-6.830574 76.83081279 -28.45513896 73.91491157 -45.3125 63.1875 C-47.4765625 60.6796875 -47.4765625 60.6796875 -49.3125 58.1875 C-50.09753906 57.46820313 -50.09753906 57.46820313 -50.8984375 56.734375 C-55.39489192 51.81560165 -58.3125 42.72897968 -58.3125 36.1875 C-56.48918386 26.24079162 -52.88749067 18.93912212 -45.3125 12.1875 C-44.6525 12.1875 -43.9925 12.1875 -43.3125 12.1875 C-43.3125 11.5275 -43.3125 10.8675 -43.3125 10.1875 C-28.67192878 2.41441322 -16.53157704 0.00832825 0 0 Z M-22.8125 22.5625 C-27.72139128 29.14928914 -28.28182067 36.16482467 -27.3125 44.1875 C-25.70079439 49.39815989 -23.03497065 53.13812318 -18.5 56.1875 C-9.31799715 60.61754812 4.18367394 60.43963982 13.6875 57.1875 C16.43397823 55.73234838 18.33602375 54.27770111 20.6875 52.1875 C20.6875 51.5275 20.6875 50.8675 20.6875 50.1875 C21.3475 50.1875 22.0075 50.1875 22.6875 50.1875 C25.75849356 42.61969443 26.80515496 35.83006677 24.875 27.8125 C23.71751784 25.25385522 22.59242452 23.25116823 20.6875 21.1875 C20.0275 21.1875 19.3675 21.1875 18.6875 21.1875 C18.6875 20.5275 18.6875 19.8675 18.6875 19.1875 C6.62264039 12.39722725 -12.85176613 11.86656911 -22.8125 22.5625 Z " fill="#000000" transform="translate(767.3125,382.8125)"/>
<path d="M0 0 C1.89588867 -0.01836914 1.89588867 -0.01836914 3.83007812 -0.03710938 C18.36026704 -0.05966011 31.35916496 2.4387582 43.8125 10.1875 C43.8125 10.8475 43.8125 11.5075 43.8125 12.1875 C44.40933594 12.27128906 45.00617188 12.35507812 45.62109375 12.44140625 C49.92401628 13.90639413 51.75741592 18.35940221 53.8125 22.1875 C57.6502793 31.33254286 58.06478499 40.78089111 54.8125 50.1875 C49.33734579 61.09911475 40.45224503 66.32527761 29.1875 70.375 C8.23279551 76.80182947 -15.48832856 77.36385077 -35.75 67.875 C-45.94434979 62.10991943 -52.96630346 55.67176593 -56.1875 44.1875 C-57.20388301 34.65489724 -56.66981134 26.25756901 -51.1875 18.1875 C-48.77335633 15.42006701 -46.19002069 13.29137894 -43.1875 11.1875 C-42.4346875 10.65382813 -41.681875 10.12015625 -40.90625 9.5703125 C-28.27951654 1.33013904 -14.68397709 0.00737518 0 0 Z M-21.125 21.5 C-26.4389363 28.42422003 -27.03942693 34.60987957 -26.1875 43.1875 C-24.98218257 48.33579384 -22.21311401 51.81721851 -18.1875 55.1875 C-13.64828679 57.87666998 -9.64019331 58.7690873 -4.4375 59 C-3.38187866 59.05353638 -3.38187866 59.05353638 -2.30493164 59.1081543 C6.31112581 59.42924347 13.81267894 58.40305295 20.8125 53.1875 C25.89438149 47.60403021 26.99129681 41.58127382 26.8125 34.1875 C26.38145482 29.29475912 25.60018317 26.14101121 22.4375 22.3125 C21.57125 21.61125 20.705 20.91 19.8125 20.1875 C19.173125 19.630625 18.53375 19.07375 17.875 18.5 C6.756255 11.424435 -11.15920323 13.65458552 -21.125 21.5 Z " fill="#000000" transform="translate(883.1875,382.8125)"/>
<path d="M0 0 C1.92295898 -0.0309375 1.92295898 -0.0309375 3.88476562 -0.0625 C15.62736445 -0.10992089 26.58717035 1.69286155 37.4375 6.25 C36.92430477 10.46412236 34.58122913 12.60456091 31.6875 15.5625 C30.82640625 16.46613281 29.9653125 17.36976563 29.078125 18.30078125 C26.4375 20.25 26.4375 20.25 24.0078125 20.140625 C23.15960938 19.84671875 22.31140625 19.5528125 21.4375 19.25 C7.98020286 15.89436906 -5.98220174 14.33539445 -19.5625 18.25 C-19.8925 18.91 -20.2225 19.57 -20.5625 20.25 C-21.51125 20.848125 -22.46 21.44625 -23.4375 22.0625 C-26.60646714 24.280777 -27.76038503 25.9160873 -29.5625 29.25 C-30.2225 29.58 -30.8825 29.91 -31.5625 30.25 C-31.95758427 38.21021635 -32.1446313 45.22010229 -26.5625 51.5 C-17.78017825 56.62302102 -9.55209937 57.86962454 0.5 57.6875 C2.15999023 57.69813477 2.15999023 57.69813477 3.85351562 57.70898438 C10.07065807 57.66124495 15.38044476 56.97407521 21.26733398 54.96899414 C23.95351525 54.07903983 26.63603787 53.61861344 29.4375 53.25 C30.94337739 55.20405518 32.44228644 57.16281284 33.9375 59.125 C34.58138672 59.95837891 34.58138672 59.95837891 35.23828125 60.80859375 C38.4375 65.0234375 38.4375 65.0234375 38.4375 67.25 C28.89252134 71.60749026 19.84484461 73.71658208 9.375 74.4375 C8.35083984 74.51935547 7.32667969 74.60121094 6.27148438 74.68554688 C-5.6470823 75.59181488 -15.8924024 74.7507352 -27.5625 72.25 C-28.57054687 72.04503906 -29.57859375 71.84007812 -30.6171875 71.62890625 C-42.31813262 68.89868572 -52.54775326 62.43780366 -59.4375 52.5625 C-61.85437975 47.5944694 -61.77746122 42.79725184 -61.8125 37.375 C-61.8434375 36.18970703 -61.8434375 36.18970703 -61.875 34.98046875 C-61.93173019 26.45675769 -58.38377613 21.49666316 -52.73046875 15.359375 C-39.0835225 2.08126513 -17.99684298 0.0708886 0 0 Z " fill="#000000" transform="translate(229.5625,382.75)"/>
<path d="M0 0 C2.02531646 15.94936709 2.02531646 15.94936709 0 20 C10.56 20 21.12 20 32 20 C32 24.95 32 29.9 32 35 C28.60689989 35.84827503 26.18758548 36.12856027 22.75390625 36.1328125 C21.75166016 36.13410156 20.74941406 36.13539063 19.71679688 36.13671875 C18.67587891 36.13285156 17.63496094 36.12898438 16.5625 36.125 C15.52544922 36.12886719 14.48839844 36.13273437 13.41992188 36.13671875 C11.91461914 36.13478516 11.91461914 36.13478516 10.37890625 36.1328125 C9.4669751 36.13168457 8.55504395 36.13055664 7.61547852 36.12939453 C4.98607307 35.999311 2.56390002 35.58261251 0 35 C0.16628906 35.91910156 0.33257813 36.83820313 0.50390625 37.78515625 C1.38841644 43.96740055 1.00568665 50.23686005 0.87304688 56.46289062 C0.80749538 62.32782109 0.91352052 67.4755006 3 73 C6.53817432 76.47646198 10.39147721 76.36492408 15.109375 76.36132812 C15.98078125 76.34521484 16.8521875 76.32910156 17.75 76.3125 C18.6059375 76.31572266 19.461875 76.31894531 20.34375 76.32226562 C26.16230792 76.27377764 31.36162264 75.43242178 37 74 C37 79.61 37 85.22 37 91 C21.0387098 95.35307914 -0.67295518 96.16343364 -16 89 C-22.10872104 85.31947168 -25.99151828 81.90415591 -28 75 C-28.94347515 70.37577122 -29.13278394 65.89735111 -29.09765625 61.1953125 C-29.0962413 60.4713327 -29.09482635 59.74735291 -29.09336853 59.00143433 C-29.08781075 56.70924593 -29.07526633 54.41715843 -29.0625 52.125 C-29.05747953 50.56250142 -29.05291759 49.00000129 -29.04882812 47.4375 C-29.03785519 43.62496165 -29.0206201 39.81249788 -29 36 C-29.85464844 35.95101562 -30.70929687 35.90203125 -31.58984375 35.8515625 C-32.69457031 35.77679688 -33.79929687 35.70203125 -34.9375 35.625 C-36.03964844 35.55539062 -37.14179687 35.48578125 -38.27734375 35.4140625 C-39.17582031 35.27742188 -40.07429687 35.14078125 -41 35 C-42.30459914 32.39080172 -42.1326594 30.41057385 -42.125 27.5 C-42.12757813 26.5203125 -42.13015625 25.540625 -42.1328125 24.53125 C-42 22 -42 22 -41 20 C-38.27734375 19.5859375 -38.27734375 19.5859375 -34.9375 19.375 C-33.83277344 19.30023438 -32.72804688 19.22546875 -31.58984375 19.1484375 C-30.73519531 19.09945313 -29.88054688 19.05046875 -29 19 C-29.04125 17.80375 -29.0825 16.6075 -29.125 15.375 C-29.26027558 11.45200804 -28.97612926 8.44318541 -27 5 C-23.51791733 3.46411322 -19.91568585 2.81972257 -16.1875 2.125 C-15.18912109 1.91359375 -14.19074219 1.7021875 -13.16210938 1.484375 C-8.69701899 0.56815392 -4.57097339 -0.11605887 0 0 Z " fill="#000000" transform="translate(979,364)"/>
<path d="M0 0 C1.7315332 -0.01836914 1.7315332 -0.01836914 3.49804688 -0.03710938 C9.40954807 -0.04728408 14.49455904 0.13700646 20.0625 2.1875 C19.1323635 8.65116041 13.94893099 14.21363427 9.0625 18.1875 C4.72767207 18.67609135 1.19296294 17.42554327 -2.9375 16.1875 C-9.68956619 15.36603201 -14.74213105 16.5035344 -20.90625 19.3125 C-22.9375 20.1875 -22.9375 20.1875 -24.9375 20.1875 C-24.9375 20.8475 -24.9375 21.5075 -24.9375 22.1875 C-26.27083333 23.52083333 -27.60416667 24.85416667 -28.9375 26.1875 C-29.85806715 28.94920144 -30.08550149 30.70928855 -30.14282227 33.56713867 C-30.16276749 34.44782516 -30.18271271 35.32851166 -30.20326233 36.23588562 C-30.22833107 37.65632927 -30.22833107 37.65632927 -30.25390625 39.10546875 C-30.27468735 40.07784988 -30.29546844 41.05023102 -30.31687927 42.05207825 C-30.38228748 45.15964665 -30.44121929 48.26729985 -30.5 51.375 C-30.54319351 53.48112858 -30.58680807 55.58724856 -30.63085938 57.69335938 C-30.73795999 62.85798591 -30.83925219 68.02269778 -30.9375 73.1875 C-33.67197229 74.55473614 -35.73189634 74.21762812 -38.78515625 74.1015625 C-39.94724609 74.05773437 -41.10933594 74.01390625 -42.30664062 73.96875 C-44.13485352 73.89140625 -44.13485352 73.89140625 -46 73.8125 C-47.22267578 73.76867187 -48.44535156 73.72484375 -49.70507812 73.6796875 C-58.8092783 73.3157217 -58.8092783 73.3157217 -59.9375 72.1875 C-60.03706278 70.0148732 -60.06549719 67.83896894 -60.06689453 65.6640625 C-60.06864685 64.98277283 -60.07039917 64.30148315 -60.07220459 63.59954834 C-60.07662242 61.33717333 -60.07368538 59.07487587 -60.0703125 56.8125 C-60.07098556 55.2469074 -60.0719556 53.6813149 -60.07321167 52.11572266 C-60.07468855 48.83039355 -60.07253441 45.54509158 -60.06787109 42.25976562 C-60.0621738 38.03929484 -60.06545286 33.81888764 -60.07144356 29.59841919 C-60.07504944 26.36433428 -60.07391046 23.13026455 -60.07131577 19.8961792 C-60.07064657 18.33957919 -60.07147466 16.78297782 -60.07379532 15.22637939 C-60.0763223 13.05452804 -60.07248065 10.88278104 -60.06689453 8.7109375 C-60.06609894 7.47263184 -60.06530334 6.23432617 -60.06448364 4.95849609 C-59.9375 2.1875 -59.9375 2.1875 -58.9375 1.1875 C-56.86487924 1.09982888 -54.78929706 1.08054127 -52.71484375 1.08984375 C-51.45478516 1.09306641 -50.19472656 1.09628906 -48.89648438 1.09960938 C-47.55598891 1.10796597 -46.21549412 1.11643093 -44.875 1.125 C-43.53060058 1.1300134 -42.1861994 1.13457658 -40.84179688 1.13867188 C-37.54032059 1.15050512 -34.23893197 1.16699029 -30.9375 1.1875 C-30.9375 2.8375 -30.9375 4.4875 -30.9375 6.1875 C-30.14085937 5.83816406 -29.34421875 5.48882812 -28.5234375 5.12890625 C-27.46382813 4.67386719 -26.40421875 4.21882813 -25.3125 3.75 C-24.26835937 3.29753906 -23.22421875 2.84507812 -22.1484375 2.37890625 C-14.92604372 -0.30093572 -7.60055227 0.00422958 0 0 Z " fill="#000000" transform="translate(458.9375,382.8125)"/>
</svg>
